<?xml version="1.0" encoding="UTF-8" standalone="no"?>
<svg
   xmlns:dc="http://purl.org/dc/elements/1.1/"
   xmlns:cc="http://creativecommons.org/ns#"
   xmlns:rdf="http://www.w3.org/1999/02/22-rdf-syntax-ns#"
   xmlns:svg="http://www.w3.org/2000/svg"
   xmlns="http://www.w3.org/2000/svg"
   xmlns:sodipodi="http://sodipodi.sourceforge.net/DTD/sodipodi-0.dtd"
   xmlns:inkscape="http://www.inkscape.org/namespaces/inkscape"
   version="1.0"
   width="512"
   height="512"
   id="svg26043"
   inkscape:version="0.48.5 r10040"
   sodipodi:docname="3sat-Logo.svg">
  <metadata
     id="metadata12">
    <rdf:RDF>
      <cc:Work
         rdf:about="">
        <dc:format>image/svg+xml</dc:format>
        <dc:type
           rdf:resource="http://purl.org/dc/dcmitype/StillImage" />
      </cc:Work>
    </rdf:RDF>
  </metadata>
  <defs
     id="defs10" />
  <sodipodi:namedview
     pagecolor="#ffffff"
     bordercolor="#666666"
     borderopacity="1"
     objecttolerance="10"
     gridtolerance="10"
     guidetolerance="10"
     inkscape:pageopacity="0"
     inkscape:pageshadow="2"
     inkscape:window-width="1103"
     inkscape:window-height="687"
     id="namedview8"
     showgrid="false"
     inkscape:zoom="0.42967742"
     inkscape:cx="90.765766"
     inkscape:cy="142"
     inkscape:window-x="0"
     inkscape:window-y="0"
     inkscape:window-maximized="0"
     inkscape:current-layer="svg26043" />
  <path
     d="M 27.90178,172.60608 L 27.90178,338.38817 L 193.68387,338.38817 L 193.68387,172.60608 L 27.90178,172.60608 z"
     id="path8693"
     style="fill:#d2002e"
     inkscape:connector-curvature="0" />
  <path
     d="M 149.34924,250.38452 C 165.94421,242.84133 173.31979,232.44851 173.31979,215.68591 C 173.31979,193.72698 156.89244,177.13198 133.42477,173.10895 C 129.90467,172.60608 126.38452,172.60608 122.69672,172.60608 C 117.50037,172.60608 113.14207,172.60608 108.78378,173.10895 C 101.5759,174.1147 94.20032,176.29385 83.80753,179.98167 L 83.80753,208.14277 C 95.70896,202.27586 104.59311,199.59384 113.64495,199.59384 C 126.8874,199.59384 136.94493,207.6399 136.94493,218.53559 C 136.94493,230.77229 126.8874,238.31548 111.29818,238.31548 L 109.45428,238.31548 L 109.45428,266.14138 L 113.47733,266.14138 C 129.4018,266.14138 139.79458,274.69026 139.79458,288.1003 C 139.79458,301.67801 129.06654,310.39461 112.30394,310.39461 C 103.75497,310.39461 94.87082,307.54498 81.46075,301.17514 L 81.46075,330.34205 C 92.1888,334.36508 100.73776,336.71189 108.78378,337.88524 C 112.80682,338.38817 116.82986,338.38817 120.85283,338.38817 C 124.87587,338.38817 128.56366,338.38817 132.25145,337.88524 C 159.40684,333.69461 177.00751,315.08812 177.00751,289.1061 C 177.00751,271.00249 167.28523,257.59239 149.34924,250.38452"
     id="path8701"
     style="fill:#ffffff"
     inkscape:connector-curvature="0" />
  <path
     d="M 212.87949,305.8687 C 226.12193,313.41184 236.68235,316.932 246.73996,316.932 C 254.11546,316.932 258.97664,313.41184 258.97664,308.21547 C 258.97664,303.18669 255.79173,300.67227 241.54352,295.14068 C 225.78668,289.1061 219.24924,284.74781 214.89101,277.03701 C 212.54424,272.3435 211.20323,267.31479 211.20323,262.45355 C 211.20323,242.33846 226.79244,229.26361 250.76292,229.26361 C 261.32341,229.26361 272.55433,232.44852 284.28813,238.81836 L 284.28813,260.60967 C 270.03993,253.06655 259.9824,250.04926 249.58953,250.04926 C 241.3759,250.04926 236.68235,252.89894 236.68235,257.76006 C 236.68235,262.11835 239.86726,264.2975 251.43343,268.6558 C 272.72196,276.53414 280.9356,282.40111 285.79677,292.62627 C 287.47304,296.31403 288.31118,300.33701 288.31118,305.03057 C 288.31118,324.97807 272.05146,339.39392 249.58953,339.39392 C 238.52624,339.39392 229.13922,337.04716 214.89101,331.34785 L 212.87949,330.50971 L 212.87949,305.86871 z"
     id="path8703"
     style="fill:#cfd0d1"
     inkscape:connector-curvature="0" />
  <path
     d="M 356.53491,310.05935 C 349.15933,315.7586 346.47737,317.09961 341.44857,317.09961 C 334.24069,317.09961 329.8824,312.74142 329.8824,305.70105 C 329.8824,297.15217 334.91113,293.29675 356.53491,284.58015 L 356.53491,310.05935 z M 402.46442,310.05935 C 398.10613,313.07663 394.92122,314.41758 392.74207,314.41758 C 390.06012,314.41758 389.55723,313.07663 389.55723,302.85142 L 389.55723,265.47085 C 389.55723,255.91612 389.38961,252.89894 387.88097,248.54064 C 384.02556,235.96867 371.11837,229.26361 350.33272,229.26361 C 334.07307,229.26361 321.66869,233.28666 307.08523,243.67947 L 307.08523,267.81766 C 321.16581,256.25138 331.72629,251.72554 342.95721,251.72554 C 352.67949,251.72554 356.53491,256.08377 356.53491,266.14139 L 356.53491,269.82915 C 346.645,273.01397 343.12484,274.355 336.25214,277.03701 C 310.60539,287.09456 300.04498,297.65504 300.04498,313.24418 C 300.04498,327.66003 311.9464,339.39392 327.20037,339.39392 C 338.43129,339.39392 346.645,335.20322 357.87593,324.47519 C 359.55219,334.53275 365.0838,339.22625 375.30903,339.22625 C 382.85217,339.22625 390.73063,336.20903 402.46442,329.3363 L 402.46442,310.05935 z"
     id="path8705"
     style="fill:#cfd0d1"
     inkscape:connector-curvature="0" />
  <path
     d="M 484.09822,330.50971 C 472.69968,336.71189 463.98309,339.39391 454.26081,339.39391 C 438.50396,339.39391 425.0939,330.67731 421.23848,317.77014 C 419.39466,311.90328 419.39466,310.72988 419.39466,294.80541 L 419.39466,252.2284 L 404.30832,252.2284 L 404.30832,248.03776 L 446.71767,198.42043 L 452.41691,198.42043 L 452.41691,231.27516 L 482.75721,231.27516 L 482.75721,252.2284 L 452.41691,252.2284 L 452.41691,288.93844 C 452.41691,309.55647 454.42843,313.91471 464.65359,313.91471 C 469.6824,313.91471 475.88459,311.40035 484.09822,306.03631 L 484.09822,330.50971 z"
     id="path8707"
     style="fill:#cfd0d1"
     inkscape:connector-curvature="0" />
</svg>
