<?xml version="1.0" encoding="UTF-8" standalone="no"?>
<!-- Created with Inkscape (http://www.inkscape.org/) -->

<svg
   xmlns:dc="http://purl.org/dc/elements/1.1/"
   xmlns:cc="http://creativecommons.org/ns#"
   xmlns:rdf="http://www.w3.org/1999/02/22-rdf-syntax-ns#"
   xmlns:svg="http://www.w3.org/2000/svg"
   xmlns="http://www.w3.org/2000/svg"
   xmlns:sodipodi="http://sodipodi.sourceforge.net/DTD/sodipodi-0.dtd"
   xmlns:inkscape="http://www.inkscape.org/namespaces/inkscape"
   id="svg2"
   version="1.1"
   inkscape:version="0.48.5 r10040"
   width="512"
   height="512"
   sodipodi:docname="M_ArdMediathek.svg">
  <metadata
     id="metadata8">
    <rdf:RDF>
      <cc:Work
         rdf:about="">
        <dc:format>image/svg+xml</dc:format>
        <dc:type
           rdf:resource="http://purl.org/dc/dcmitype/StillImage" />
        <dc:title />
      </cc:Work>
    </rdf:RDF>
  </metadata>
  <defs
     id="defs6" />
  <sodipodi:namedview
     pagecolor="#ffffff"
     bordercolor="#666666"
     borderopacity="1"
     objecttolerance="10"
     gridtolerance="10"
     guidetolerance="10"
     inkscape:pageopacity="0"
     inkscape:pageshadow="2"
     inkscape:window-width="1440"
     inkscape:window-height="851"
     id="namedview4"
     showgrid="false"
     fit-margin-top="0"
     fit-margin-left="0"
     fit-margin-right="0"
     fit-margin-bottom="0"
     inkscape:zoom="0.74176123"
     inkscape:cx="244.61612"
     inkscape:cy="243.05432"
     inkscape:window-x="0"
     inkscape:window-y="0"
     inkscape:window-maximized="1"
     inkscape:current-layer="svg2" />
  <rect
     style="fill:#045692;fill-opacity:1;fill-rule:nonzero;stroke:none"
     id="rect2996"
     width="512"
     height="512"
     x="0"
     y="0" />
  <path
     style="fill:#ffffff;stroke:none"
     d="M 450.09336,308.21455 L 442.31652,308.74136 C 438.04024,309.02228 434.21564,309.56707 433.81218,309.97061 C 432.61701,311.16575 433.98385,314.0848 435.74385,314.0848 C 436.62617,314.0848 438.05076,314.4556 438.90475,314.91266 C 440.39484,315.71014 440.46012,316.89674 440.46012,344.06324 L 440.46012,372.36088 L 437.72569,373.36435 C 434.45832,374.54583 432.87463,376.24619 433.51113,377.90502 C 433.89382,378.90228 435.822,379.11927 444.24818,379.10918 C 449.89142,379.10241 454.9899,378.78536 455.58731,378.40675 C 457.18105,377.39686 455.53136,374.75943 452.52676,373.51487 L 450.09336,372.48633 L 450.09336,364.40845 C 450.09336,359.86982 450.38568,356.65537 450.7707,357.08318 C 451.14824,357.50262 454.83095,362.35134 458.94891,367.87039 C 463.06705,373.38944 466.83119,378.17339 467.30274,378.5071 C 467.77429,378.8408 471.04565,379.02142 474.57784,378.90848 C 480.3211,378.72484 481,378.54092 481,377.15242 C 481,376.19143 479.72304,374.81487 477.63841,373.53996 C 475.49653,372.23009 471.47771,367.86908 466.60032,361.54858 C 462.38184,356.08197 458.92382,351.3062 458.92382,350.93697 C 458.92382,349.42127 472.85128,336.92619 475.25518,336.28641 C 478.51667,335.41837 479.79584,334.32866 479.79584,332.42309 C 479.79584,330.98174 479.15684,330.90816 468.75776,331.11858 C 458.32929,331.32959 457.71967,331.43303 457.71967,332.9499 C 457.71967,333.99054 458.63764,334.96512 460.32867,335.70942 C 461.76362,336.341 462.90877,337.0635 462.8875,337.31497 C 462.86624,337.56642 459.99813,340.83711 456.49043,344.59007 L 450.09336,351.41361 L 450.09336,329.81408 z M 347.33879,308.46541 L 343.12426,308.54068 C 340.80625,308.57935 337.10347,308.85029 334.89586,309.14275 C 331.31162,309.61758 330.88201,309.88867 330.88201,311.65141 C 330.88201,313.21253 331.40559,313.73412 333.36558,314.13498 C 334.72869,314.41377 336.26399,314.89642 336.77735,315.21369 C 337.45818,315.63447 337.70776,323.43218 337.70556,344.03816 L 337.70556,372.28562 L 334.0931,373.76574 C 330.69923,375.16144 329.49451,377.06943 331.03253,378.60743 C 331.33878,378.91371 336.48654,379.05585 342.472,378.93357 C 352.79384,378.7227 353.35931,378.6335 353.58534,377.05208 C 353.76786,375.77516 353.06369,375.03606 350.52479,373.89117 L 347.21336,372.38598 L 347.46423,359.44131 C 347.72361,346.86576 347.8062,346.36864 349.9478,343.13505 C 352.80634,338.81894 355.46881,337.13936 359.43053,337.13936 C 362.94434,337.13936 365.2131,338.72336 367.15718,342.48279 C 368.52765,345.13301 369.31521,358.97609 368.56203,367.09271 C 368.09491,372.1265 367.95223,372.40104 365.12517,373.91626 C 363.24193,374.92562 362.19004,376.07698 362.19004,377.10225 C 362.19004,378.62933 362.72887,378.70779 373.42882,378.70779 C 384.19478,378.70779 384.66509,378.64928 384.89338,377.05208 C 385.07526,375.7796 384.36233,375.03429 381.88299,373.91626 L 378.64682,372.43615 L 378.64682,359.11519 C 378.6368,345.104 377.71265,339.24264 374.93401,335.50873 C 370.00971,328.89145 357.87795,328.47274 350.62513,334.68087 L 347.33879,337.49057 L 347.33879,322.99053 z M 202.06251,308.59085 C 199.99409,308.6056 197.56193,308.77071 195.94139,309.0424 C 192.49396,309.62037 192.0028,309.96056 192.0028,311.67649 C 192.0028,313.2533 192.52462,313.73775 194.71215,314.18515 C 196.20418,314.49031 197.73719,315.21978 198.12392,315.81578 C 198.51065,316.41177 198.7383,319.95025 198.62564,323.66788 L 198.42496,330.41616 L 191.60141,330.49142 C 182.45164,330.60066 177.34852,332.41592 172.48545,337.28987 C 167.26215,342.52487 165.51139,347.60441 165.51139,357.43439 C 165.51139,364.1797 165.76147,365.58804 167.76917,369.67663 C 172.38817,379.08298 181.77401,382.33646 191.30037,377.82976 C 193.72452,376.68295 196.1192,375.05734 196.64381,374.21729 C 198.1334,371.83208 198.82634,372.40123 198.82634,376.02353 L 198.82634,379.36004 L 206.60318,378.83322 C 211.31077,378.52399 214.61819,377.94193 214.9821,377.35312 C 216.00666,375.69532 214.24735,373.69255 211.29436,373.13857 L 208.48468,372.61176 L 208.25889,340.75182 L 208.0582,308.8668 L 203.96909,308.64102 C 203.40545,308.6082 202.75198,308.58593 202.06251,308.59085 z M 234.59978,312.47926 C 230.80863,312.47926 228.52884,314.4627 228.52884,317.74745 C 228.52884,322.98641 234.10062,325.56733 238.21225,322.23794 C 242.06591,319.11744 239.60564,312.47926 234.59978,312.47926 z M 53.299198,314.03463 L 44.393468,314.2604 C 35.823263,314.47744 35.458709,314.55347 35.211786,316.29242 C 35.000834,317.77802 35.629451,318.40284 38.723905,319.72928 C 42.441468,321.32282 42.488374,321.393 41.985158,324.34521 C 41.704381,325.99244 40.923446,332.20734 40.254184,338.16791 C 39.584931,344.12847 38.888585,349.54717 38.698818,350.20946 C 38.50905,350.87174 37.968722,355.2067 37.494662,359.8427 C 36.295181,371.57307 36.123267,372.12304 33.430639,373.66539 C 31.21721,374.93325 30.312825,377.32095 31.574234,378.58236 C 31.868578,378.87671 36.175519,379.10918 41.132215,379.10918 C 48.714571,379.10918 50.218407,378.9034 50.640023,377.80468 C 51.281691,376.13252 49.897645,374.47816 46.751604,373.16366 L 44.268034,372.13511 L 45.221325,358.1619 C 45.753617,350.48045 46.436605,340.84714 46.726518,336.76306 C 47.01643,332.67897 47.5187,329.33743 47.830326,329.33743 C 48.141946,329.33743 48.875388,330.6921 49.460954,332.34783 C 50.046526,334.00354 52.845841,341.31878 55.682421,348.60392 C 58.519009,355.88905 62.133336,365.28145 63.735208,369.47593 C 67.221822,378.60559 67.575764,379.12495 70.2828,379.10918 C 72.900802,379.09391 74.004499,378.36518 74.59769,376.29947 C 75.038121,374.76574 81.260535,357.92374 84.833008,348.60392 C 85.763863,346.17553 87.783058,340.75497 89.323499,336.56236 C 90.863939,332.36975 92.425984,328.64327 92.785448,328.2838 C 93.144911,327.92434 93.861123,332.26115 94.390981,337.91704 C 94.92084,343.57293 95.879617,352.17624 96.498257,357.03301 C 98.463173,372.45913 98.538494,371.66222 94.641852,373.59013 C 91.13439,375.32549 90.144851,377.7155 92.534577,378.63253 C 93.232968,378.90053 98.290419,379.10918 103.77336,379.10918 L 113.73271,379.10918 L 113.73271,377.07717 C 113.73271,375.65867 113.00762,374.60263 111.37459,373.66539 C 109.8557,372.79368 108.86152,371.45843 108.56489,369.87732 C 107.38503,363.58809 102.25098,321.22277 102.64447,321.03378 C 108.08956,318.41876 109.3175,317.50519 109.3175,316.09173 C 109.3175,314.58208 108.77235,314.48618 100.16089,314.48618 L 91.029387,314.48618 L 83.854629,333.35128 C 79.910036,343.72709 75.994991,354.09638 75.17468,356.40583 C 72.597186,363.66243 72.483988,363.70654 70.132282,357.68524 C 67.834994,351.80332 55.546399,319.94585 54.15214,316.26734 z M 306.47278,317.19553 L 305.16828,321.86164 C 302.60095,331.08036 302.98744,330.51998 299.27294,330.79245 C 295.98069,331.03395 295.87172,331.1203 296.11203,333.60215 C 296.34316,335.98902 296.58228,336.1836 299.72449,336.41185 L 303.11118,336.66271 L 303.33696,355.40238 C 303.56152,372.81646 303.7013,374.25245 305.19336,375.92318 C 309.19128,380.39979 315.52988,380.78578 322.52818,376.97682 C 326.37618,374.88248 327.16319,373.4457 325.71418,371.15673 C 325.14985,370.26531 324.52642,370.19885 322.72887,370.88078 C 317.8727,372.72305 316.1054,372.78675 314.42523,371.10656 C 312.90861,369.58994 312.81968,368.44704 312.81968,353.01916 L 312.81968,336.56236 L 319.24185,336.56236 L 325.66401,336.56236 L 325.66401,333.75267 L 325.66401,330.94298 L 319.26693,330.94298 L 312.89494,330.94298 L 312.64408,324.32012 L 312.4183,317.69726 L 309.43299,317.4464 z M 138.66876,330.21547 C 133.21014,330.33731 127.70504,332.2183 124.24399,335.78468 C 119.64012,340.52865 117.74581,346.33806 117.74657,355.70341 C 117.74714,362.59112 118.01556,364.00914 120.07962,368.37213 C 124.67881,378.09385 134.15715,381.81177 146.27,378.65762 C 152.26256,377.09716 157.88507,373.88483 157.88507,372.00968 C 157.88507,369.1764 156.32818,368.72727 152.4162,370.40414 C 147.65903,372.4433 139.1949,372.67182 135.70855,370.8557 C 130.68259,368.23755 128.62614,364.56247 127.98189,357.03301 L 127.78119,354.62469 L 142.98366,354.2233 L 158.18611,353.82193 L 157.96034,348.62901 C 157.70652,342.44038 156.29053,338.69479 152.84267,335.13244 C 149.53712,331.71709 144.12739,330.09362 138.66876,330.21547 z M 409.97994,330.26564 C 409.11575,330.28085 408.23312,330.34587 407.32076,330.44124 C 395.66381,331.65964 388.96535,340.43632 388.88214,354.62469 C 388.80701,367.43855 393.07914,375.24779 401.92715,378.40675 C 407.37861,380.35306 414.71868,380.01699 421.36924,377.52873 C 423.8893,376.58583 426.74572,375.14896 427.74123,374.34273 C 429.33946,373.0486 429.44905,372.63149 428.59417,370.75535 C 427.67211,368.73179 427.53174,368.67883 425.40817,369.77698 C 422.26565,371.40204 414.4093,372.73371 411.33461,372.1602 C 404.20653,370.83062 399.82653,365.74282 399.34325,358.23716 L 399.11747,354.62469 L 414.1694,354.3989 C 425.36282,354.2365 429.24128,353.92782 429.2966,353.19476 C 430.38948,338.72334 422.94387,330.03747 409.97994,330.26564 z M 269.92166,330.5165 C 265.10945,330.53401 260.17444,331.00753 258.03063,331.94644 L 255.02024,333.27602 L 255.02024,339.79854 L 255.02024,346.29596 L 257.20278,346.04509 C 259.01635,345.83446 259.65121,345.10862 260.86541,341.78037 C 262.70998,336.72426 263.98487,335.75959 268.89312,335.75959 C 274.28464,335.75959 277.07351,338.63391 277.8741,345.04162 C 278.18327,347.51615 278.232,349.75122 277.97446,350.00876 C 277.71691,350.26629 275.54227,350.73883 273.15783,351.06239 C 264.94232,352.17726 260.18887,354.05769 256.09897,357.76052 C 252.04295,360.55234 252.21055,362.17728 252.21055,366.79168 C 252.21055,373.2557 253.60832,375.74058 258.63271,378.28131 C 262.71017,380.3432 265.9171,380.34176 270.79969,378.25624 C 272.93353,377.34481 275.63051,375.70541 276.7703,374.61868 L 278.8274,372.63684 L 279.9061,375.92318 C 280.50001,377.72273 281.29068,379.3813 281.66217,379.61091 C 282.44883,380.09709 293.20632,375.27386 294.25563,373.96643 C 294.6476,373.47802 294.67488,372.30573 294.3058,371.33233 C 293.73781,369.83434 293.21733,369.63454 290.79369,370.02783 L 287.93381,370.47939 L 287.93381,356.53127 C 287.92799,338.35581 287.02182,335.10871 281.11027,331.87117 C 279.42133,330.94622 274.73387,330.499 269.92166,330.5165 z M 238.96484,330.79245 L 231.01241,331.06842 C 226.63303,331.22016 222.87322,331.52499 222.65858,331.74575 C 222.44393,331.9665 222.13361,332.84413 221.98124,333.7025 C 221.75865,334.95652 222.45452,335.48184 225.51845,336.36167 L 229.33159,337.46548 L 229.33159,355.00099 L 229.33159,372.56159 L 226.84803,373.11349 C 223.78135,373.78704 221.17578,376.23855 221.80563,377.87992 C 222.19562,378.89623 224.21568,379.10918 233.8221,379.10918 L 245.387,379.10918 L 245.387,377.22769 C 245.387,375.80502 244.5994,374.98401 242.17592,373.89117 L 238.96484,372.43615 L 238.96484,351.6143 z M 138.16703,335.88502 C 139.62956,335.86355 141.08911,336.16996 142.38158,336.83831 C 145.09975,338.24393 147.16886,341.96746 147.57449,346.19561 L 147.85045,349.0053 L 138.01652,349.23108 C 129.2876,349.43115 128.18258,349.31352 128.18258,348.12727 C 128.18258,345.50201 130.01772,340.72118 131.84522,338.59438 C 133.31812,336.88024 135.72949,335.9208 138.16703,335.88502 z M 189.06768,335.88502 C 189.94372,335.87902 190.85505,335.9437 191.80211,336.08572 C 198.26795,337.05532 198.36318,337.22967 198.24935,350.10911 C 198.19427,356.3418 197.74619,362.69185 197.24589,364.20776 C 195.92808,368.20076 190.6613,372.70077 187.38687,372.63684 C 185.95319,372.60886 184.05538,372.29967 183.17232,371.93442 C 178.46369,369.98679 175.54601,363.35625 175.54601,354.62469 C 175.54601,342.82207 180.59925,335.94306 189.06768,335.88502 z M 409.25243,335.91011 C 414.22912,335.81173 418.78532,340.31601 418.78532,346.5719 L 418.78532,349.40669 L 409.15208,349.40669 L 399.51886,349.40669 L 399.51886,347.39976 C 399.51886,344.20842 402.52446,338.63892 405.06297,337.13936 C 406.43358,336.32973 407.85899,335.93767 409.25243,335.91011 z M 278.55143,355.57798 L 278.02462,360.67055 C 277.73204,363.46984 276.93541,366.5767 276.26856,367.59445 C 273.73213,371.46553 268.66456,373.3509 265.53151,371.58321 C 261.70307,369.42317 260.33305,364.1957 262.69673,360.82107 C 264.54639,358.18033 268.00211,356.68825 273.58429,356.10479 z"
     id="path3808"
     inkscape:connector-curvature="0"
     sodipodi:nodetypes="cccssscccscccsccssscssssssssccccccssssccccsscccsssssssscccsccccssssscccssssssccscccccsssssccsssssssssscccssssssssssssssscssscssccssccccsscccsssssscccccccccccsssssssscccccssscssscsssccccsscccccssscsccsscccssscccssccsscccccsscsccccsscccssssssssssssscccscsccssscc" />
  <g
     id="g2446"
     transform="matrix(1.289402,0,0,1.289402,30.999996,132.16605)"
     style="fill:#ffffff">
    <path
       d="M 315.4,0 C 333.953,0 348.999,15.044 348.999,33.603 C 348.999,52.154 333.953,67.2 315.4,67.2 C 296.847,67.2 281.801,52.154 281.801,33.603 C 281.801,15.044 296.847,0 315.4,0 M 328.887,47.202 V 13.569 L 295.07,25.71 V 34.069 L 306.271,30.019 V 55.298 L 328.887,47.202 z M 315.4,4.931 C 299.568,4.931 286.73,17.765 286.73,33.603 C 286.73,49.433 299.568,62.271 315.4,62.271 C 331.232,62.271 344.066,49.433 344.066,33.603 C 344.066,17.765 331.232,4.931 315.4,4.931 M 47.997,65.702 H 29.547 L 38.401,35.407 L 47.997,65.702 z M 170.389,97.366 L 169.391,88.014 C 157.799,90.26 161.287,59.467 147.827,57.847 C 157.546,54.73 164.531,47.374 164.531,36.155 C 164.531,20.694 152.934,13.592 133.486,13.592 C 121.518,13.592 106.062,14.214 102.946,14.214 H 93.471 V 22.068 C 96.586,23.938 100.324,26.431 103.817,27.429 V 85.143 C 99.953,86.148 96.586,88.387 93.471,90.383 V 98.36 H 131.99 V 90.383 C 129.871,88.513 127.627,86.517 124.761,85.143 V 64.328 H 128.502 C 141.468,64.328 136.979,99.735 156.054,99.735 C 160.665,99.735 166.149,99.109 170.389,97.366 M 142.838,39.021 C 142.838,47.248 138.725,52.358 130.369,52.358 H 124.761 V 26.182 C 125.88,25.933 127.876,25.683 129.749,25.683 C 139.222,25.683 142.838,31.916 142.838,39.021 M 267.589,54.484 C 267.589,25.062 252.632,13.714 225.579,13.714 C 214.231,13.714 200.149,14.213 193.412,14.213 H 183.315 V 22.067 C 186.432,23.937 190.171,26.43 193.665,27.551 V 85.019 C 189.8,86.017 186.433,88.386 183.315,90.382 V 98.359 H 193.788 C 197.527,98.359 210.741,98.859 219.847,98.859 C 247.017,98.86 267.589,83.277 267.589,54.484 M 245.523,56.351 C 245.523,76.674 236.67,85.65 225.33,85.65 C 220.347,85.65 217.226,85.274 214.607,84.402 V 26.056 C 216.853,25.806 219.341,25.683 222.086,25.683 C 240.786,25.683 245.523,39.896 245.523,56.351 M 82.905,98.36 V 90.383 C 81.408,88.513 79.29,86.77 76.918,85.273 L 52.36,13.964 H 31.792 L 7.234,85.273 C 4.49,86.518 1.996,88.388 0,90.384 V 98.361 H 31.043 V 90.384 C 28.926,88.388 26.554,86.648 23.814,85.274 L 26.181,77.42 H 51.488 L 54.106,85.274 C 51.361,86.518 48.745,88.388 46.499,90.384 V 98.361 H 82.905 z"
       id="path2452"
       inkscape:connector-curvature="0"
       style="fill:#ffffff" />
  </g>
</svg>
