<?xml version="1.0" encoding="UTF-8" standalone="no"?>
<!-- Generator: Adobe Illustrator 15.0.2, SVG Export Plug-In . SVG Version: 6.00 Build 0)  -->

<svg
   xmlns:dc="http://purl.org/dc/elements/1.1/"
   xmlns:cc="http://creativecommons.org/ns#"
   xmlns:rdf="http://www.w3.org/1999/02/22-rdf-syntax-ns#"
   xmlns:svg="http://www.w3.org/2000/svg"
   xmlns="http://www.w3.org/2000/svg"
   xmlns:sodipodi="http://sodipodi.sourceforge.net/DTD/sodipodi-0.dtd"
   xmlns:inkscape="http://www.inkscape.org/namespaces/inkscape"
   version="1.1"
   id="LIVEWEB"
   x="0px"
   y="0px"
   width="512"
   height="512"
   viewBox="0 0 512 512.00002"
   enable-background="new 0 0 621.56 340.158"
   xml:space="preserve"
   inkscape:version="0.48.5 r10040"
   sodipodi:docname="ARTE-+7-ORANGE-RVB.svg"><metadata
     id="metadata19"><rdf:RDF><cc:Work
         rdf:about=""><dc:format>image/svg+xml</dc:format><dc:type
           rdf:resource="http://purl.org/dc/dcmitype/StillImage" /></cc:Work></rdf:RDF></metadata><defs
     id="defs17" /><sodipodi:namedview
     pagecolor="#ffffff"
     bordercolor="#666666"
     borderopacity="1"
     objecttolerance="10"
     gridtolerance="10"
     guidetolerance="10"
     inkscape:pageopacity="0"
     inkscape:pageshadow="2"
     inkscape:window-width="1440"
     inkscape:window-height="851"
     id="namedview15"
     showgrid="false"
     fit-margin-top="0.5"
     fit-margin-right="0.5"
     fit-margin-bottom="0.5"
     fit-margin-left="0.5"
     inkscape:zoom="1.0167965"
     inkscape:cx="23.730417"
     inkscape:cy="230.9762"
     inkscape:window-x="0"
     inkscape:window-y="0"
     inkscape:window-maximized="1"
     inkscape:current-layer="LIVEWEB" /><path
     d="M 102.69431,111.07118 C 126.09963,111.14015 154.91407,117.47297 154.91407,140.7981 V 196.51864 H 113.62642 V 172.48309 C 113.59595,172.41413 103.60038,176.01915 95.925294,178.38454 C 90.747098,179.80376 86.835788,182.72561 86.529491,187.99042 C 86.123766,192.43735 91.160842,196.51864 91.160842,196.51864 H 50.679825 C 50.623697,196.51864 41.667295,193.28888 41.935104,183.62047 C 42.770607,165.20731 57.118492,158.41905 92.426123,154.35058 C 111.44385,151.99482 113.59435,150.16344 113.62482,145.38938 C 113.59435,141.46202 111.28027,137.02631 100.50532,136.85793 C 84.973947,136.87077 86.059619,147.3795 86.075657,147.34743 H 46.529571 C 46.442973,147.33299 46.911241,111.11289 102.69431,111.07118 M 228.84569,111.95159 C 215.1136,113.95295 210.29302,125.31002 210.27539,125.27955 V 113.47828 H 171.81177 V 196.52024 H 213.77616 V 156.74483 C 213.81624,149.71603 215.78875,146.57126 218.35459,144.07278 C 221.25399,141.09157 226.33598,139.01483 231.90226,139.04211 H 243.70193 V 113.47666 C 243.70353,113.47666 237.64334,110.65584 228.84569,111.95159 M 312.54836,93.81428 H 271.02497 V 113.47828 H 253.76165 V 139.04211 H 271.02497 V 172.91929 C 271.06346,180.22392 270.91432,186.1831 276.27212,191.92899 C 280.96442,196.72391 287.09839,196.5026 294.41425,196.52024 H 312.54836 V 139.04211 H 337.46272 V 113.47666 H 312.54836 V 93.81428 z M 398.89386,111.72708 C 468.52929,112.49683 457.26844,175.45306 457.24118,175.54447 H 382.92468 V 196.52024 H 352.5563 C 352.65092,196.52024 340.0879,185.22893 340.31241,162.86918 C 340.76785,110.78735 396.70006,111.68539 398.89386,111.72708 M 417.01674,154.56387 C 416.97986,154.48849 418.75992,137.53789 398.89386,137.50902 C 379.73021,137.41761 381.8342,154.48849 381.8342,154.56387 H 417.01674"
     id="path5"
     style="fill:#fa481c;fill-opacity:1;stroke:none"
     inkscape:connector-curvature="0" /><g
     id="g7"
     transform="matrix(0.97993585,0,0,0.97993585,-78.422903,157.334)"><path
       d="M 451.472,68.031 C 395.203,68.031 349.434,113.809 349.434,170.069 C 349.434,226.329 395.204,272.126 451.472,272.126 C 507.744,272.126 553.529,226.329 553.529,170.069 C 553.529,113.809 507.744,68.031 451.472,68.031 z M 451.472,261.044 C 401.313,261.044 360.503,220.239 360.503,170.069 C 360.503,119.918 401.313,79.104 451.472,79.104 C 501.644,79.104 542.464,119.917 542.464,170.069 C 542.464,220.239 501.644,261.044 451.472,261.044 z"
       id="path9"
       style="fill:#fa481c;fill-opacity:1;stroke:none"
       inkscape:connector-curvature="0" /><polygon
       points="425.324,192.548 425.324,175.099 442.881,175.099 442.881,165.031 425.324,165.031 425.324,147.582 414.919,147.582 414.919,165.031 397.363,165.031 397.363,175.099 414.919,175.099 414.919,192.548 "
       id="polygon11"
       style="fill:#fa481c;fill-opacity:1;stroke:none" /><polygon
       points="487.742,148.126 459.038,202.246 471.645,202.246 500.532,146.761 500.532,138.263 455.555,138.263 455.555,148.126 "
       id="polygon13"
       style="fill:#fa481c;fill-opacity:1;stroke:none" /></g></svg>