<?xml version="1.0" encoding="UTF-8" standalone="no"?>
<!-- Created with Inkscape (http://www.inkscape.org/) -->

<svg
   xmlns:dc="http://purl.org/dc/elements/1.1/"
   xmlns:cc="http://creativecommons.org/ns#"
   xmlns:rdf="http://www.w3.org/1999/02/22-rdf-syntax-ns#"
   xmlns:svg="http://www.w3.org/2000/svg"
   xmlns="http://www.w3.org/2000/svg"
   xmlns:sodipodi="http://sodipodi.sourceforge.net/DTD/sodipodi-0.dtd"
   xmlns:inkscape="http://www.inkscape.org/namespaces/inkscape"
   version="1.0"
   width="512"
   height="512"
   id="svg1879"
   inkscape:version="0.48.5 r10040"
   sodipodi:docname="BR.svg">
  <metadata
     id="metadata8">
    <rdf:RDF>
      <cc:Work
         rdf:about="">
        <dc:format>image/svg+xml</dc:format>
        <dc:type
           rdf:resource="http://purl.org/dc/dcmitype/StillImage" />
      </cc:Work>
    </rdf:RDF>
  </metadata>
  <sodipodi:namedview
     pagecolor="#ffffff"
     bordercolor="#666666"
     borderopacity="1"
     objecttolerance="10"
     gridtolerance="10"
     guidetolerance="10"
     inkscape:pageopacity="0"
     inkscape:pageshadow="2"
     inkscape:window-width="1440"
     inkscape:window-height="851"
     id="namedview6"
     showgrid="false"
     fit-margin-top="0"
     fit-margin-left="0"
     fit-margin-right="0"
     fit-margin-bottom="0"
     inkscape:zoom="0.53456211"
     inkscape:cx="44.951593"
     inkscape:cy="196.07719"
     inkscape:window-x="0"
     inkscape:window-y="0"
     inkscape:window-maximized="1"
     inkscape:current-layer="svg1879" />
  <defs
     id="defs1881" />
  <g
     id="layer1"
     transform="matrix(0.79022222,0,0,0.79022222,18.000008,87.048004)">
    <path
       d="M 513.67926,28.136181 C 480.24176,28.136181 453.14856,55.239651 453.14856,88.666851 C 453.14856,122.11214 480.24176,149.22304 513.67926,149.22304 C 547.11386,149.22304 574.24316,122.11214 574.24316,88.666851 C 574.24316,55.239651 547.11386,28.136181 513.67926,28.136181 z M 542.19546,117.39882 L 542.19546,46.378191 L 470.76376,72.012241 L 470.76376,89.663581 L 494.41496,81.110041 L 494.41496,134.49774 L 542.19546,117.39882 z M 513.67926,17.725951 C 552.89586,17.725951 584.64566,49.486021 584.64566,88.666851 C 584.64566,127.85544 552.89586,159.62584 513.67926,159.62584 C 474.50616,159.62584 442.73836,127.85544 442.73836,88.666851 C 442.73836,49.486021 474.50616,17.725951 513.67926,17.725951 L 513.67926,17.725951 z M 351.36424,232.27994 C 392.80038,217.95254 422.44935,184.91584 422.44935,135.84884 C 422.44935,123.56064 416.22553,93.721731 393.63518,74.475551 C 378.74762,61.789451 357.21813,46.776461 287.71829,45.099061 C 273.34699,44.747211 229.65341,46.303781 229.65341,46.303781 L 229.65341,48.815631 C 241.99263,58.239761 255.25912,73.859021 261.63955,91.864681 C 268.27936,91.646421 278.32995,91.112091 288.26007,91.646421 C 316.16999,93.133541 328.32176,98.352831 340.89766,108.23937 C 353.54762,118.16949 360.35184,135.22444 360.26963,150.70024 C 360.18993,171.81374 350.16731,193.63344 319.68636,206.05524 C 295.0207,216.11354 265.19207,218.32494 265.19207,218.32494 L 265.17147,226.01784 C 265.17147,226.01784 283.03293,234.57104 300.88198,258.17614 C 316.25994,278.49104 405.51478,409.88034 405.51478,409.88034 L 479.25521,409.88034 C 479.25521,409.88034 360.08958,243.87714 351.36419,232.27994 L 351.36419,232.27994 z M 115.49905,359.18204 L 74.206756,359.18204 L 74.206756,91.340631 C 74.784676,91.340631 92.736486,91.112091 103.91739,91.112091 C 150.02042,91.112091 175.58255,114.95358 176.29936,147.67424 C 176.74369,167.53694 170.85401,186.59324 150.59302,200.60984 C 134.05428,212.07314 111.0118,215.48924 111.0118,215.48924 L 111.0118,224.11474 C 111.0118,224.11474 142.95436,228.87164 159.17208,236.45644 C 189.37593,250.55524 198.34511,272.46524 198.55345,300.79114 C 198.88971,345.58174 155.64826,359.18204 115.49905,359.18204 L 115.49905,359.18204 z M 17.716526,46.190751 L 17.716526,409.87934 L 98.418176,409.87934 C 204.36341,409.87934 260.3707,370.84234 260.3707,296.96544 C 260.3707,252.98414 232.75097,223.88764 189.27566,213.79304 C 217.60156,197.03074 235.79467,172.39054 235.79467,135.67554 C 235.79467,96.412521 212.49034,44.517601 114.89031,44.517601 C 73.801046,44.517601 28.769166,45.845281 17.716526,46.189691 L 17.716526,46.190791 z"
       style="fill:#0086cb;fill-rule:evenodd"
       id="path10"
       inkscape:connector-curvature="0" />
  </g>
</svg>
