<?xml version="1.0" encoding="UTF-8" standalone="no"?>
<!-- Created with Inkscape (http://www.inkscape.org/) -->

<svg
   xmlns:dc="http://purl.org/dc/elements/1.1/"
   xmlns:cc="http://creativecommons.org/ns#"
   xmlns:rdf="http://www.w3.org/1999/02/22-rdf-syntax-ns#"
   xmlns:svg="http://www.w3.org/2000/svg"
   xmlns="http://www.w3.org/2000/svg"
   xmlns:xlink="http://www.w3.org/1999/xlink"
   xmlns:sodipodi="http://sodipodi.sourceforge.net/DTD/sodipodi-0.dtd"
   xmlns:inkscape="http://www.inkscape.org/namespaces/inkscape"
   width="512"
   height="512"
   id="svg2"
   version="1.1"
   inkscape:version="0.48.5 r10040"
   sodipodi:docname="kika.svg">
  <defs
     id="defs4">
    <linearGradient
       inkscape:collect="always"
       id="linearGradient4017">
      <stop
         style="stop-color:#00bcb4;stop-opacity:1;"
         offset="0"
         id="stop4019" />
      <stop
         style="stop-color:#00bcb4;stop-opacity:0;"
         offset="1"
         id="stop4021" />
    </linearGradient>
    <linearGradient
       inkscape:collect="always"
       xlink:href="#linearGradient4017"
       id="linearGradient4023"
       x1="262.23132"
       y1="451.0354"
       x2="263.06647"
       y2="287.34961"
       gradientUnits="userSpaceOnUse"
       gradientTransform="matrix(1.1767552,0,0,1.1774574,-48.467018,430.72756)" />
  </defs>
  <sodipodi:namedview
     id="base"
     pagecolor="#ffffff"
     bordercolor="#666666"
     borderopacity="1.0"
     inkscape:pageopacity="0.0"
     inkscape:pageshadow="2"
     inkscape:zoom="0.59870805"
     inkscape:cx="266.59239"
     inkscape:cy="242.43645"
     inkscape:document-units="px"
     inkscape:current-layer="layer1"
     showgrid="false"
     inkscape:window-width="1440"
     inkscape:window-height="851"
     inkscape:window-x="0"
     inkscape:window-y="0"
     inkscape:window-maximized="1" />
  <metadata
     id="metadata7">
    <rdf:RDF>
      <cc:Work
         rdf:about="">
        <dc:format>image/svg+xml</dc:format>
        <dc:type
           rdf:resource="http://purl.org/dc/dcmitype/StillImage" />
        <dc:title />
      </cc:Work>
    </rdf:RDF>
  </metadata>
  <g
     inkscape:label="Layer 1"
     inkscape:groupmode="layer"
     id="layer1"
     transform="translate(0,-540.36218)">
    <path
       style="fill:none;stroke:url(#linearGradient4023);stroke-width:2;stroke-linecap:butt;stroke-linejoin:round;stroke-miterlimit:4;stroke-opacity:1;stroke-dasharray:none"
       d="M 385.46146,739.51576 L 376.26806,744.81432 L 382.29893,757.65596 L 370.67847,765.71419 L 375.97387,774.91307 L 388.77108,768.8786 L 396.86128,780.506 L 406.05468,775.20744 L 399.98703,762.40259 L 411.64426,754.30757 L 406.34886,745.10868 L 393.51488,751.17995 L 385.46146,739.51576 z M 297.57256,742.68018 L 288.41593,747.97874 L 294.4468,760.82038 L 282.82634,768.9154 L 288.12174,778.07749 L 300.91895,772.04302 L 309.00915,783.67041 L 318.16577,778.37185 L 312.1349,765.56701 L 323.79213,757.47199 L 318.49673,748.3099 L 305.66275,754.34436 L 297.57256,742.68018 z M 210.3088,746.87487 L 201.15218,752.17343 L 207.18305,765.01507 L 195.56259,773.0733 L 200.85799,782.27218 L 213.6552,776.20092 L 221.74539,787.86511 L 230.90202,782.56655 L 224.87115,769.7249 L 236.52838,761.66668 L 231.23298,752.46779 L 218.399,758.53906 L 210.3088,746.87487 z M 122.45667,750.03929 L 113.30005,755.33784 L 119.33092,768.17949 L 107.71046,776.23771 L 113.00586,785.4366 L 125.80307,779.36533 L 133.89326,791.02952 L 143.04989,785.73096 L 137.01902,772.88932 L 148.67625,764.83109 L 143.38085,755.63221 L 130.54686,761.70347 L 122.45667,750.03929 z M 429.03818,763.28568 L 419.88155,768.58424 L 425.91242,781.38909 L 414.29196,789.48411 L 419.58736,798.683 L 432.38457,792.61173 L 440.47477,804.27592 L 449.63139,798.97736 L 443.60052,786.13571 L 455.22098,778.07749 L 449.92558,768.8786 L 437.12837,774.91307 L 429.03818,763.28568 z M 340.59767,765.41982 L 331.44104,770.71838 L 337.47191,783.56003 L 325.81468,791.61825 L 331.11008,800.81714 L 343.94407,794.78267 L 352.03426,806.41006 L 361.19088,801.1115 L 355.16001,788.30665 L 366.78047,780.21163 L 361.48507,771.01275 L 348.68786,777.08401 L 340.59767,765.41982 z M 252.74554,768.58424 L 243.58891,773.8828 L 249.61978,786.72444 L 237.96255,794.81946 L 243.25795,803.98155 L 256.09194,797.94708 L 264.18213,809.57448 L 273.33875,804.27592 L 267.30788,791.47107 L 278.92834,783.37605 L 273.63294,774.21396 L 260.83573,780.24843 L 252.74554,768.58424 z M 165.48178,772.77893 L 156.32516,778.07749 L 162.35603,790.91914 L 150.6988,798.97736 L 155.9942,808.17625 L 168.82818,802.10498 L 176.91837,813.76917 L 186.075,808.47061 L 180.04413,795.62896 L 191.66459,787.57074 L 186.36919,778.37185 L 173.57198,784.44312 L 165.48178,772.77893 z M 77.629652,775.94335 L 68.473031,781.24191 L 74.503896,794.08355 L 62.84667,802.14178 L 68.142068,811.34066 L 80.97605,805.2694 L 89.066242,816.93358 L 98.222868,811.63503 L 92.191998,798.79338 L 103.81246,790.73516 L 98.517057,781.53627 L 85.719844,787.60754 L 77.629652,775.94335 z M 384.21116,789.18974 L 375.01776,794.4883 L 381.0854,807.29315 L 369.42817,815.38817 L 374.72357,824.58706 L 387.55756,818.51579 L 395.61097,830.17998 L 404.80437,824.88142 L 398.7735,812.03978 L 410.39396,803.98155 L 405.09856,794.78267 L 392.30135,800.81714 L 384.21116,789.18974 z M 295.77065,791.32389 L 286.57725,796.62244 L 292.64489,809.46409 L 280.98766,817.52231 L 286.28306,826.7212 L 299.11705,820.68673 L 307.17047,832.31412 L 316.36387,827.01556 L 310.333,814.21071 L 321.95345,806.11569 L 316.65805,796.91681 L 303.86084,802.98807 L 295.77065,791.32389 z M 207.91852,794.4883 L 198.72512,799.78686 L 204.79276,812.62851 L 193.13553,820.72353 L 198.43093,829.88562 L 211.26492,823.85115 L 219.31834,835.47854 L 228.51174,830.17998 L 222.44409,817.37513 L 234.10132,809.28011 L 228.80592,800.11802 L 215.97194,806.15249 L 207.91852,794.4883 z M 120.65477,798.683 L 111.46137,803.98155 L 117.52901,816.8232 L 105.87178,824.88142 L 111.16718,834.08031 L 124.00116,828.00904 L 132.05458,839.67323 L 141.24798,834.37467 L 135.18034,821.53303 L 146.83757,813.4748 L 141.54217,804.27592 L 128.70818,810.34718 L 120.65477,798.683 z M 32.802639,801.84741 L 23.609239,807.14597 L 29.676883,819.98761 L 18.019651,828.04584 L 23.31505,837.24472 L 36.149036,831.17346 L 44.202455,842.83765 L 53.395855,837.53909 L 47.328211,824.69744 L 58.985442,816.63922 L 53.690043,807.44033 L 40.856057,813.5116 L 32.802639,801.84741 z M 427.23627,811.92939 L 418.04287,817.22795 L 424.07374,830.0328 L 412.45328,838.12782 L 417.74868,847.28991 L 430.54589,841.25544 L 438.63609,852.91963 L 447.82949,847.62107 L 441.76184,834.77942 L 453.41907,826.6844 L 448.12367,817.52231 L 435.28969,823.55678 L 427.23627,811.92939 z M 339.34737,815.09381 L 330.19074,820.39237 L 336.22161,833.19722 L 324.60115,841.29223 L 329.89655,850.49112 L 342.69376,844.41986 L 350.78396,856.08404 L 359.94058,850.78548 L 353.90971,837.94384 L 365.56694,829.88562 L 360.27154,820.68673 L 347.43756,826.7212 L 339.34737,815.09381 z M 250.90686,817.22795 L 241.75023,822.52651 L 247.7811,835.36815 L 236.16064,843.42638 L 241.45604,852.62526 L 254.25326,846.59079 L 262.34345,858.21818 L 271.50007,852.91963 L 265.4692,840.11478 L 277.12643,832.01976 L 271.83104,822.82087 L 258.99705,828.89214 L 250.90686,817.22795 z M 163.05473,820.39237 L 153.8981,825.69092 L 159.92897,838.53257 L 148.30851,846.62759 L 153.60391,855.78968 L 166.40112,849.75521 L 174.49132,861.3826 L 183.64794,856.08404 L 177.61707,843.27919 L 189.2743,835.18417 L 183.97891,826.02208 L 171.14492,832.05655 L 163.05473,820.39237 z M 75.790972,824.58706 L 66.634351,829.88562 L 72.665221,842.72726 L 61.044763,850.78548 L 66.340162,859.98437 L 79.13737,853.91311 L 87.227562,865.57729 L 96.384188,860.27874 L 90.353318,847.43709 L 102.01055,839.37887 L 96.715151,830.17998 L 83.881164,836.25125 L 75.790972,824.58706 z M 469.63623,833.63876 L 460.4796,838.93732 L 466.51047,851.77896 L 454.89002,859.83719 L 460.18542,869.03607 L 472.98263,862.96481 L 481.07282,874.629 L 490.22945,869.33044 L 484.19858,856.48879 L 495.81903,848.43057 L 490.52364,839.23168 L 477.72642,845.30295 L 469.63623,833.63876 z M 382.37248,837.83345 L 373.21585,843.13201 L 379.24672,855.93686 L 367.58949,864.03188 L 372.88489,873.19397 L 385.71888,867.1595 L 393.80907,878.82369 L 402.96569,873.52513 L 396.93482,860.68349 L 408.55528,852.58847 L 403.25988,843.42638 L 390.46267,849.46085 L 382.37248,837.83345 z M 294.52035,840.99787 L 285.36372,846.29643 L 291.39459,859.10128 L 279.73736,867.1963 L 285.03276,876.39518 L 297.86674,870.32392 L 305.95694,881.98811 L 315.11356,876.68955 L 309.08269,863.8479 L 320.70315,855.78968 L 315.40775,846.59079 L 302.61054,852.62526 L 294.52035,840.99787 z M 206.07984,843.13201 L 196.92321,848.43057 L 202.95408,861.27221 L 191.29685,869.33044 L 196.59225,878.52932 L 209.42624,872.49486 L 217.51643,884.12225 L 226.67306,878.82369 L 220.64218,866.01884 L 232.26264,857.92382 L 226.96724,848.72493 L 214.17003,854.7962 L 206.07984,843.13201 z M 118.22771,846.29643 L 109.07108,851.59499 L 115.10195,864.43663 L 103.44472,872.53165 L 108.74012,881.69374 L 121.57411,875.65927 L 129.6643,887.28666 L 138.82092,881.98811 L 132.79005,869.18326 L 144.41051,861.08824 L 139.11511,851.92615 L 126.3179,857.96062 L 118.22771,846.29643 z M 30.963959,850.49112 L 21.807332,855.78968 L 27.838203,868.63132 L 16.180971,876.68955 L 21.47637,885.88843 L 34.310356,879.81717 L 42.400548,891.48136 L 51.557175,886.1828 L 45.526304,873.34115 L 57.146762,865.28293 L 51.851363,856.08404 L 39.054151,862.15531 L 30.963959,850.49112 z M 424.80921,859.54282 L 415.61581,864.84138 L 421.68346,877.68303 L 410.02622,885.74125 L 415.32162,894.94014 L 428.15561,888.86887 L 436.20903,900.53306 L 445.40243,895.2345 L 439.37156,882.39286 L 450.99202,874.33463 L 445.69662,865.13575 L 432.8994,871.20701 L 424.80921,859.54282 z M 337.54546,863.73752 L 328.35206,869.03607 L 334.4197,881.84092 L 322.76247,889.93594 L 328.05787,899.09803 L 340.89186,893.06356 L 348.94528,904.72775 L 358.13868,899.42919 L 352.1078,886.58755 L 363.72826,878.49253 L 358.43286,869.33044 L 345.63565,875.36491 L 337.54546,863.73752 z M 249.69333,866.90193 L 240.49993,872.20049 L 246.56757,885.00534 L 234.91034,893.10036 L 240.20574,902.29925 L 253.03973,896.22798 L 261.09314,907.89217 L 270.28654,902.59361 L 264.2189,889.75197 L 275.87613,881.69374 L 270.58073,872.49486 L 257.74675,878.52932 L 249.69333,866.90193 z M 161.25282,869.03607 L 152.05942,874.33463 L 158.12706,887.17628 L 146.46983,895.2345 L 151.76523,904.43339 L 164.59922,898.39892 L 172.65264,910.02631 L 181.84604,904.72775 L 175.77839,891.9229 L 187.43562,883.82788 L 182.14023,874.629 L 169.30624,880.70026 L 161.25282,869.03607 z M 73.400688,872.20049 L 64.207293,877.49905 L 70.274937,890.34069 L 58.617706,898.43571 L 63.913104,907.5978 L 76.747086,901.56334 L 84.800504,913.19073 L 93.993904,907.89217 L 87.92626,895.08732 L 99.583492,886.9923 L 94.288093,877.83021 L 81.454107,883.86468 L 73.400688,872.20049 z M 467.83432,882.28247 L 458.64092,887.58103 L 464.67179,900.42267 L 453.05134,908.4809 L 458.34674,917.67978 L 471.14395,911.60852 L 479.23414,923.27271 L 488.42754,917.97415 L 482.3599,905.1325 L 494.01713,897.07428 L 488.72173,887.87539 L 475.88774,893.94666 L 467.83432,882.28247 z M 379.94542,885.44689 L 370.78879,890.74545 L 376.81966,903.58709 L 365.19921,911.64531 L 370.4946,920.8442 L 383.29182,914.77294 L 391.38201,926.43712 L 400.53864,921.13856 L 394.50777,908.29692 L 406.165,900.2387 L 400.8696,891.03981 L 388.03561,897.11107 L 379.94542,885.44689 z M 292.68167,889.64158 L 283.52504,894.94014 L 289.55591,907.74499 L 277.93545,915.84001 L 283.23085,925.0021 L 296.02806,918.96763 L 304.11826,930.63181 L 313.27488,925.33326 L 307.24401,912.49161 L 318.90124,904.39659 L 313.60585,895.2345 L 300.77186,901.26897 L 292.68167,889.64158 z M 204.82954,892.806 L 195.67291,898.10455 L 201.70378,910.9094 L 190.08332,919.00442 L 195.37872,928.20331 L 208.17593,922.13204 L 216.26613,933.79623 L 225.42275,928.49767 L 219.39188,915.65603 L 231.04911,907.5978 L 225.75372,898.39892 L 212.91973,904.43339 L 204.82954,892.806 z M 116.38903,894.94014 L 107.2324,900.2387 L 113.26327,913.08034 L 101.64282,921.13856 L 106.93821,930.33745 L 119.73543,924.30298 L 127.82562,935.93037 L 136.98224,930.63181 L 130.95137,917.82697 L 142.60861,909.73195 L 137.31321,900.53306 L 124.47922,906.60432 L 116.38903,894.94014 z M 422.97053,908.18653 L 413.81391,913.48509 L 419.84478,926.32674 L 408.18754,934.38496 L 413.48294,943.58385 L 426.31693,937.51258 L 434.40712,949.17677 L 443.56375,943.87821 L 437.53288,931.03657 L 449.15334,922.97834 L 443.85794,913.77946 L 431.06072,919.85072 L 422.97053,908.18653 z M 335.1184,911.35095 L 325.96178,916.64951 L 331.99265,929.49115 L 320.33541,937.54938 L 325.63081,946.74826 L 338.4648,940.677 L 346.55499,952.34119 L 355.71162,947.04263 L 349.68075,934.20098 L 361.3012,926.14276 L 356.00581,916.94387 L 343.20859,923.01514 L 335.1184,911.35095 z M 247.85465,915.54564 L 238.69802,920.8442 L 244.72889,933.64905 L 233.07166,941.74407 L 238.36706,950.90616 L 251.20105,944.87169 L 259.29124,956.53588 L 268.44786,951.23732 L 262.41699,938.39567 L 274.03745,930.30066 L 268.74205,921.13856 L 255.94484,927.17303 L 247.85465,915.54564 z M 160.00252,918.71006 L 150.84589,924.00862 L 156.87676,936.81347 L 145.21953,944.90849 L 150.51493,954.10737 L 163.34892,948.03611 L 171.43911,959.70029 L 180.59573,954.40174 L 174.56486,941.56009 L 186.18532,933.50187 L 180.88992,924.30298 L 168.09271,930.33745 L 160.00252,918.71006 z M 71.562013,920.8442 L 62.405387,926.14276 L 68.436257,938.9844 L 56.779026,947.04263 L 62.074424,956.24151 L 74.908406,950.20704 L 82.998598,961.83444 L 92.155224,956.53588 L 86.124354,943.73103 L 97.744812,935.63601 L 92.449413,926.43712 L 79.6522,932.50839 L 71.562013,920.8442 z M 378.14351,934.0906 L 368.95011,939.38915 L 375.01776,952.2308 L 363.36053,960.28902 L 368.65592,969.48791 L 381.48991,963.41664 L 389.54333,975.08083 L 398.73673,969.78227 L 392.70586,956.94063 L 404.32632,948.8824 L 399.03092,939.68352 L 386.23371,945.75478 L 378.14351,934.0906 z M 290.29138,937.25501 L 281.09798,942.55357 L 287.16563,955.39522 L 275.5084,963.45344 L 280.80379,972.65233 L 293.63778,966.58106 L 301.6912,978.24525 L 310.8846,972.94669 L 304.81696,960.10505 L 316.47419,952.04682 L 311.17879,942.84794 L 298.3448,948.9192 L 290.29138,937.25501 z M 203.02763,941.4497 L 193.83423,946.74826 L 199.90187,959.55311 L 188.24464,967.64813 L 193.54004,976.81022 L 206.37403,970.77575 L 214.42745,982.43994 L 223.62085,977.14138 L 217.5532,964.29974 L 229.21043,956.20472 L 223.91504,947.04263 L 211.08105,953.0771 L 203.02763,941.4497 z M 115.1755,944.61412 L 105.9821,949.91268 L 112.04974,962.71753 L 100.39251,970.81255 L 105.68791,980.01143 L 118.5219,973.94017 L 126.57532,985.60436 L 135.76872,980.3058 L 129.70107,967.46415 L 141.3583,959.40593 L 136.0629,950.20704 L 123.22892,956.24151 L 115.1755,944.61412 z M 245.42759,963.15908 L 236.27096,968.45763 L 242.30184,981.29928 L 230.68138,989.3575 L 235.97678,998.55639 L 248.77399,992.48512 L 256.86418,1004.1493 L 266.02081,998.85075 L 259.98994,986.00911 L 271.64717,977.95088 L 266.35177,968.752 L 253.51778,974.82326 L 245.42759,963.15908 z"
       id="path3876"
       inkscape:connector-curvature="0" />
    <g
       id="g3075"
       transform="matrix(4.2016058,0,0,-4.2016058,-2625.6723,2180.76)">
      <g
         id="g4025"
         transform="translate(-10.335773,-10.137008)">
        <path
           style="fill:#176563"
           inkscape:connector-curvature="0"
           d="M 729.049,346.088 H 724.848 V 350.083 H 729.049 V 346.088 z M 705.531,343.246 L 713.546,349.703 V 336.789 L 705.531,343.246 z M 669.678,343.24 L 677.696,349.696 V 336.782 L 669.678,343.24 z M 737.363,358.605 H 722.058 L 714.676,352.667 V 355.632 C 714.672,357.25 713.354,358.581 711.737,358.605 H 707.696 C 707.078,358.605 706.49,358.426 705.996,358.085 L 699.175,352.207 V 355.63 C 699.171,357.273 697.829,358.605 696.184,358.605 H 689.003 H 687.872 H 680.684 C 679.694,358.605 678.778,358.118 678.228,357.406 C 677.689,358.121 676.839,358.591 675.884,358.605 H 671.843 C 671.231,358.605 670.643,358.424 670.143,358.078 L 663.325,352.199 V 358.605 H 655.009 C 653.365,358.605 652.023,357.269 652.018,355.624 V 330.858 C 652.023,329.209 653.365,327.871 655.009,327.871 H 663.325 V 334.287 L 670.109,328.421 C 670.596,328.07 671.231,327.871 671.843,327.871 H 675.89 C 676.864,327.887 677.729,328.38 678.264,329.122 C 678.809,328.365 679.695,327.871 680.694,327.871 H 683.656 C 684.117,327.935 684.6,328.105 684.931,328.339 C 685.104,328.461 686.727,329.766 687.872,330.689 V 327.871 H 696.184 C 697.829,327.871 699.171,329.213 699.175,330.862 V 334.286 L 705.996,328.408 C 706.503,328.057 707.091,327.871 707.696,327.871 H 711.744 C 712.713,327.887 713.575,328.378 714.109,329.12 C 714.652,328.364 715.536,327.871 716.534,327.871 H 724.848 V 336.983 H 729.049 V 327.871 H 737.363 C 739.008,327.871 740.35,329.211 740.354,330.858 V 355.625 C 740.35,357.271 739.008,358.605 737.363,358.605"
           id="path3077" />
        <g
           style="fill:#f5fc1f"
           id="g3079">
          <path
             inkscape:connector-curvature="0"
             d="M 677.6953,330.8549 V 335.3289 L 667.8713,343.2399 L 677.6953,351.1499 V 355.6249 C 677.6923,356.6289 676.8723,357.4599 675.8673,357.4739 H 671.8423 C 671.4623,357.4739 671.0973,357.3609 670.7873,357.1469 L 662.1923,349.7259 V 357.4739 H 655.0093 C 653.9873,357.4739 653.1533,356.6429 653.1513,355.6209 V 330.8579 C 653.1533,329.8379 653.9873,329.0039 655.0093,329.0039 H 662.1923 V 336.7539 L 670.7873,329.3319 C 671.0963,329.1189 671.4603,329.0039 671.8423,329.0039 H 675.8713 C 676.8743,329.0209 677.6923,329.8519 677.6953,330.8549"
             id="path3081" />
          <path
             inkscape:connector-curvature="0"
             d="M 687.8712,332.1433 V 348.2323 C 687.8682,349.2523 687.0352,350.0833 686.0132,350.0833 H 678.8292 V 330.8813 C 678.8292,329.8473 679.6652,329.0043 680.6942,329.0043 H 683.5632 C 683.8442,329.0433 684.0972,329.1363 684.2772,329.2643 C 684.4692,329.3993 686.4572,330.9993 687.8712,332.1433"
             id="path3083" />
          <path
             inkscape:connector-curvature="0"
             d="M 680.6838,357.4743 C 679.6408,357.4743 678.8318,356.6423 678.8288,355.9253 V 351.2153 H 687.8708 V 357.4743 H 680.6838 z"
             id="path3085" />
          <path
             inkscape:connector-curvature="0"
             d="M 713.545,330.8618 V 335.3358 L 703.725,343.2458 L 713.545,351.1568 V 355.6328 C 713.542,356.6358 712.729,357.4598 711.724,357.4748 H 707.696 C 707.315,357.4748 706.951,357.3678 706.641,357.1538 L 698.043,349.7318 V 355.6298 C 698.04,356.6498 697.206,357.4748 696.184,357.4748 H 689.003 V 329.0038 H 696.184 C 697.206,329.0038 698.04,329.8448 698.043,330.8658 V 336.7548 L 706.641,329.3388 C 706.949,329.1258 707.314,329.0038 707.696,329.0038 H 711.724 C 712.728,329.0208 713.542,329.8588 713.545,330.8618"
             id="path3087" />
          <path
             inkscape:connector-curvature="0"
             d="M 739.2213,355.6249 C 739.2183,356.6449 738.3853,357.4739 737.3633,357.4739 H 722.4573 L 714.6763,351.2159 V 330.8589 C 714.6793,329.8389 715.5123,329.0039 716.5333,329.0039 H 723.7143 V 338.1159 H 730.1803 V 329.0039 H 737.3633 C 738.3853,329.0039 739.2183,329.8389 739.2213,330.8609 V 355.6249 z M 730.1803,344.9569 H 723.7143 V 351.2149 H 730.1803 V 344.9569 z"
             id="path3089" />
        </g>
      </g>
    </g>
  </g>
</svg>
