<?xml version="1.0" encoding="UTF-8" standalone="no"?>
<!-- Created with Inkscape (http://www.inkscape.org/) -->

<svg
   xmlns:dc="http://purl.org/dc/elements/1.1/"
   xmlns:cc="http://creativecommons.org/ns#"
   xmlns:rdf="http://www.w3.org/1999/02/22-rdf-syntax-ns#"
   xmlns:svg="http://www.w3.org/2000/svg"
   xmlns="http://www.w3.org/2000/svg"
   xmlns:sodipodi="http://sodipodi.sourceforge.net/DTD/sodipodi-0.dtd"
   xmlns:inkscape="http://www.inkscape.org/namespaces/inkscape"
   version="1.1"
   width="512"
   height="512"
   id="svg2"
   inkscape:version="0.48.5 r10040"
   sodipodi:docname="ORF-TV-THEK.svg">
  <sodipodi:namedview
     pagecolor="#ffffff"
     bordercolor="#666666"
     borderopacity="1"
     objecttolerance="10"
     gridtolerance="10"
     guidetolerance="10"
     inkscape:pageopacity="0"
     inkscape:pageshadow="2"
     inkscape:window-width="1440"
     inkscape:window-height="851"
     id="namedview24"
     showgrid="false"
     inkscape:zoom="1.143156"
     inkscape:cx="168.41177"
     inkscape:cy="254.94511"
     inkscape:window-x="0"
     inkscape:window-y="0"
     inkscape:window-maximized="1"
     inkscape:current-layer="svg2" />
  <defs
     id="defs4" />
  <metadata
     id="metadata7">
    <rdf:RDF>
      <cc:Work
         rdf:about="">
        <dc:format>image/svg+xml</dc:format>
        <dc:type
           rdf:resource="http://purl.org/dc/dcmitype/StillImage" />
        <dc:title />
      </cc:Work>
    </rdf:RDF>
  </metadata>
  <g
     transform="translate(-1.2371134,-542.63022)"
     id="layer1">
    <g
       id="g3027"
       transform="matrix(3.8110444,0,0,3.8110444,-6.9526199,-3050.2536)">
      <path
         inkscape:connector-curvature="0"
         id="rect3049"
         transform="translate(1.2371134,964.63022)"
         d="M 0,58.65625 L 0,90 L 136,90 L 136,58.65625 L 0,58.65625 z"
         style="fill:#001c61;fill-opacity:1;stroke:#000000;stroke-width:0.2756879;stroke-miterlimit:4;stroke-opacity:0;stroke-dasharray:none" />
      <path
         inkscape:connector-curvature="0"
         style="font-size:10px;letter-spacing:0;word-spacing:0;fill:#ec1b24;fill-rule:nonzero;stroke:none"
         id="path3591"
         d="M 1.7407304,965.08971 L 137.545,965.08971 L 137.545,1023.2322 L 1.7407304,1023.2322 L 1.7407304,965.08971 z" />
      <path
         inkscape:connector-curvature="0"
         style="font-size:10px;letter-spacing:0;word-spacing:0;fill:#ffffff;fill-rule:nonzero;stroke:none"
         id="path3593"
         d="M 47.121261,994.16228 C 47.121261,984.66843 39.427406,977.34159 29.8256,977.34159 C 20.221098,977.34159 12.52724,984.66843 12.52724,994.16228 C 12.52724,1003.6535 20.221098,1010.9776 29.8256,1010.9776 C 39.427406,1010.9776 47.121261,1003.6535 47.121261,994.16228 M 38.911957,994.16228 C 38.911957,999.26813 34.523952,1003.3431 29.8256,1003.3431 C 25.073277,1003.3431 20.736539,999.26813 20.736539,994.16228 C 20.736539,989.05375 25.073277,984.97877 29.8256,984.97877 C 34.523952,984.97877 38.911957,989.05375 38.911957,994.16228" />
      <path
         inkscape:connector-curvature="0"
         style="font-size:10px;letter-spacing:0;word-spacing:0;fill:#ffffff;fill-rule:nonzero;stroke:none"
         id="path3595"
         d="M 58.571634,1010.3596 L 66.524564,1010.3596 L 66.524564,1000.9197 L 72.461595,1000.9197 L 78.708992,1010.3596 L 88.621126,1010.3596 L 80.619633,999.01176 C 84.386948,997.3602 87.020827,993.80067 87.020827,989.41536 C 87.020827,982.96558 82.271199,977.96228 75.041507,977.96228 L 58.571634,977.96228 L 58.571634,1010.3596 z M 74.577344,993.28522 L 66.524564,993.28522 L 66.524564,985.59678 L 74.577344,985.59678 C 78.037018,985.59678 79.070601,987.29961 79.070601,989.41536 C 79.070601,991.58237 78.037018,993.28522 74.577344,993.28522" />
      <path
         inkscape:connector-curvature="0"
         style="font-size:10px;letter-spacing:0;word-spacing:0;fill:#ffffff;fill-rule:nonzero;stroke:none"
         id="path3597"
         d="M 100.39266,1010.3407 L 108.33748,1010.3407 L 108.33748,999.43275 L 123.35278,999.43275 L 123.35278,991.80366 L 108.33748,991.80366 L 108.33748,985.59137 L 126.75849,985.59137 L 126.75849,977.96228 L 100.39266,977.96228 L 100.39266,1010.3407 z" />
      <path
         inkscape:connector-curvature="0"
         style="font-size:10px;letter-spacing:0;word-spacing:0;fill:#e2001a;fill-opacity:1;fill-rule:nonzero;stroke:none"
         id="path3603"
         d="M 1.2371134,965.08971 L 137.04138,965.08971 L 137.04138,1023.2322 L 1.2371134,1023.2322 L 1.2371134,965.08971 z" />
      <path
         inkscape:connector-curvature="0"
         style="font-size:10px;letter-spacing:0;word-spacing:0;fill:#ffffff;fill-rule:nonzero;stroke:none"
         id="path3605"
         d="M 47.121261,994.16228 C 47.121261,984.66843 39.427406,977.34159 29.8256,977.34159 C 20.221098,977.34159 12.52724,984.66843 12.52724,994.16228 C 12.52724,1003.6535 20.221098,1010.9776 29.8256,1010.9776 C 39.427406,1010.9776 47.121261,1003.6535 47.121261,994.16228 M 38.911957,994.16228 C 38.911957,999.26813 34.523952,1003.3431 29.8256,1003.3431 C 25.073277,1003.3431 20.736539,999.26813 20.736539,994.16228 C 20.736539,989.05375 25.073277,984.97877 29.8256,984.97877 C 34.523952,984.97877 38.911957,989.05375 38.911957,994.16228" />
      <path
         inkscape:connector-curvature="0"
         style="font-size:10px;letter-spacing:0;word-spacing:0;fill:#ffffff;fill-rule:nonzero;stroke:none"
         id="path3607"
         d="M 58.571634,1010.3596 L 66.524564,1010.3596 L 66.524564,1000.9197 L 72.461595,1000.9197 L 78.708992,1010.3596 L 88.621126,1010.3596 L 80.619633,999.01176 C 84.386948,997.3602 87.020827,993.80067 87.020827,989.41536 C 87.020827,982.96558 82.271199,977.96228 75.041507,977.96228 L 58.571634,977.96228 L 58.571634,1010.3596 z M 74.577344,993.28522 L 66.524564,993.28522 L 66.524564,985.59678 L 74.577344,985.59678 C 78.037018,985.59678 79.070601,987.29961 79.070601,989.41536 C 79.070601,991.58237 78.037018,993.28522 74.577344,993.28522" />
      <path
         inkscape:connector-curvature="0"
         style="font-size:10px;letter-spacing:0;word-spacing:0;fill:#ffffff;fill-rule:nonzero;stroke:none"
         id="path3609"
         d="M 100.39266,1010.3407 L 108.33748,1010.3407 L 108.33748,999.43275 L 123.35278,999.43275 L 123.35278,991.80366 L 108.33748,991.80366 L 108.33748,985.59137 L 126.75849,985.59137 L 126.75849,977.96228 L 100.39266,977.96228 L 100.39266,1010.3407 z" />
      <path
         d="M 22.50675,1033.4589 L 22.50675,1029.5055 L 4.4313743,1029.5055 L 4.4313743,1033.4589 L 11.069396,1033.4589 L 11.069396,1048.9945 L 15.868717,1048.9945 L 15.868717,1033.4589 z"
         id="path3001"
         style="font-size:29.45648766px;font-style:normal;font-variant:normal;font-weight:bold;font-stretch:normal;line-height:125%;letter-spacing:0px;word-spacing:0px;fill:#ffffff;fill-opacity:1;stroke:none;font-family:Gotham;-inkscape-font-specification:Gotham Bold"
         inkscape:connector-curvature="0" />
      <path
         d="M 42.277034,1029.5055 L 38.032716,1029.5055 L 33.353742,1040.3742 L 28.674768,1029.5055 L 24.328173,1029.5055 L 31.563963,1049.1337 L 35.041234,1049.1337 z"
         id="path3003"
         style="font-size:29.45648766px;font-style:normal;font-variant:normal;font-weight:bold;font-stretch:normal;line-height:125%;letter-spacing:0px;word-spacing:0px;fill:#ffffff;fill-opacity:1;stroke:none;font-family:Gotham;-inkscape-font-specification:Gotham Bold"
         inkscape:connector-curvature="0" />
      <path
         d="M 64.088804,1033.4589 L 64.088804,1029.5055 L 46.01344,1029.5055 L 46.01344,1033.4589 L 52.651461,1033.4589 L 52.651461,1048.9945 L 57.450782,1048.9945 L 57.450782,1033.4589 z"
         id="path3005"
         style="font-size:29.45648766px;font-style:normal;font-variant:normal;font-weight:bold;font-stretch:normal;line-height:125%;letter-spacing:0px;word-spacing:0px;fill:#d40000;fill-opacity:1;stroke:none;font-family:Gotham;-inkscape-font-specification:Gotham Bold"
         inkscape:connector-curvature="0" />
      <path
         d="M 83.729441,1048.9945 L 83.729441,1029.5055 L 79.58046,1029.5055 L 79.58046,1037.2175 L 71.92909,1037.2175 L 71.92909,1029.5055 L 67.780108,1029.5055 L 67.780108,1048.9945 L 71.92909,1048.9945 L 71.92909,1041.171 L 79.58046,1041.171 L 79.58046,1048.9945 z"
         id="path3007"
         style="font-size:29.45648766px;font-style:normal;font-variant:normal;font-weight:bold;font-stretch:normal;line-height:125%;letter-spacing:0px;word-spacing:0px;fill:#d40000;fill-opacity:1;stroke:none;font-family:Gotham;-inkscape-font-specification:Gotham Bold"
         inkscape:connector-curvature="0" />
      <path
         d="M 108.06871,1048.9945 L 108.06871,1045.1802 L 96.226229,1045.1802 L 96.226229,1041.0875 L 106.51048,1041.0875 L 106.51048,1037.2732 L 96.226229,1037.2732 L 96.226229,1033.3197 L 107.91289,1033.3197 L 107.91289,1029.5055 L 91.458066,1029.5055 L 91.458066,1048.9945 z"
         id="path3009"
         style="font-size:29.45648766px;font-style:normal;font-variant:normal;font-weight:bold;font-stretch:normal;line-height:125%;letter-spacing:0px;word-spacing:0px;fill:#d40000;fill-opacity:1;stroke:none;font-family:Gotham;-inkscape-font-specification:Gotham Bold"
         inkscape:connector-curvature="0" />
      <path
         d="M 134.18781,1048.9945 L 124.90081,1037.7744 L 133.78267,1029.5055 L 127.98609,1029.5055 L 119.1354,1038.0249 L 119.1354,1029.5055 L 114.33607,1029.5055 L 114.33607,1048.9945 L 119.1354,1048.9945 L 119.1354,1043.0364 L 121.65971,1040.6977 L 128.42239,1048.9945 z"
         id="path3011"
         style="font-size:29.45648766px;font-style:normal;font-variant:normal;font-weight:bold;font-stretch:normal;line-height:125%;letter-spacing:0px;word-spacing:0px;fill:#d40000;fill-opacity:1;stroke:none;font-family:Gotham;-inkscape-font-specification:Gotham Bold"
         inkscape:connector-curvature="0" />
    </g>
  </g>
</svg>
