<?xml version="1.0" encoding="UTF-8" standalone="no"?>
<svg
   xmlns:dc="http://purl.org/dc/elements/1.1/"
   xmlns:cc="http://creativecommons.org/ns#"
   xmlns:rdf="http://www.w3.org/1999/02/22-rdf-syntax-ns#"
   xmlns:svg="http://www.w3.org/2000/svg"
   xmlns="http://www.w3.org/2000/svg"
   xmlns:sodipodi="http://sodipodi.sourceforge.net/DTD/sodipodi-0.dtd"
   xmlns:inkscape="http://www.inkscape.org/namespaces/inkscape"
   height="512"
   width="512"
   id="svg2"
   version="1.1"
   inkscape:version="0.48.5 r10040"
   sodipodi:docname="Phoenix_Logo_2012.svg">
  <metadata
     id="metadata30">
    <rdf:RDF>
      <cc:Work
         rdf:about="">
        <dc:format>image/svg+xml</dc:format>
        <dc:type
           rdf:resource="http://purl.org/dc/dcmitype/StillImage" />
      </cc:Work>
    </rdf:RDF>
  </metadata>
  <defs
     id="defs28" />
  <sodipodi:namedview
     pagecolor="#ffffff"
     bordercolor="#666666"
     borderopacity="1"
     objecttolerance="10"
     gridtolerance="10"
     guidetolerance="10"
     inkscape:pageopacity="0"
     inkscape:pageshadow="2"
     inkscape:window-width="1440"
     inkscape:window-height="851"
     id="namedview26"
     showgrid="false"
     inkscape:zoom="0.44192393"
     inkscape:cx="-22.100457"
     inkscape:cy="149.19"
     inkscape:window-x="0"
     inkscape:window-y="0"
     inkscape:window-maximized="1"
     inkscape:current-layer="svg2" />
  <g
     transform="matrix(4.2040346,0,0,-4.2040346,-2710.7248,1173.7218)"
     id="g4">
    <path
       d="M 758.967,193.7615 C 758.967,190.8445 756.567,188.4575 753.639,188.4575 H 657.731 C 654.803,188.4575 652.403,190.8445 652.403,193.7615 V 242.8295 C 652.403,245.7475 654.803,248.1335 657.731,248.1335 H 753.639 C 756.567,248.1335 758.967,245.7475 758.967,242.8295 V 193.7615 z"
       id="path6"
       inkscape:connector-curvature="0"
       style="fill:#deddde" />
    <path
       d="M 672.9593,205.8385 V 188.4575 H 676.7183 V 205.8385 C 676.7213,207.3565 677.9873,208.6195 679.5033,208.6225 H 758.9673 V 212.3825 H 679.5033 C 675.8933,212.3735 672.9683,209.4515 672.9593,205.8385"
       id="path8"
       inkscape:connector-curvature="0"
       style="fill:#fab20b" />
    <g
       id="g10"
       style="fill:#231f20">
      <path
         d="M 664.251,229.3957 C 663.117,229.3957 662.178,229.0067 661.431,228.2337 C 660.686,227.4607 660.312,226.4497 660.312,225.2017 C 660.312,223.9247 660.686,222.8967 661.431,222.1097 C 662.178,221.3207 663.117,220.9287 664.251,220.9287 C 665.352,220.9287 666.278,221.3317 667.026,222.1297 C 667.778,222.9287 668.154,223.9517 668.154,225.1887 C 668.154,226.4187 667.784,227.4277 667.047,228.2147 C 666.307,229.0007 665.379,229.3957 664.251,229.3957 M 660.471,232.3477 V 230.7647 C 661.12,231.4167 661.822,231.9027 662.577,232.2317 C 663.335,232.5557 664.142,232.7177 665.003,232.7177 C 666.877,232.7177 668.466,232.0097 669.775,230.5937 C 671.083,229.1797 671.737,227.3637 671.737,225.1497 C 671.737,223.0137 671.062,221.2287 669.711,219.7897 C 668.357,218.3527 666.75,217.6337 664.897,217.6337 C 664.072,217.6337 663.305,217.7807 662.592,218.0767 C 661.881,218.3707 661.173,218.8527 660.471,219.5197 V 212.7547 H 656.897 V 232.3477 H 660.471 z"
         id="path12"
         inkscape:connector-curvature="0" />
      <path
         d="M 673.1297,237.8866 H 676.7007 V 230.8966 C 677.3997,231.5026 678.1107,231.9586 678.8217,232.2606 C 679.5327,232.5646 680.2547,232.7176 680.9837,232.7176 C 682.4047,232.7176 683.6057,232.2236 684.5807,231.2416 C 685.4147,230.3866 685.8327,229.1346 685.8327,227.4826 V 218.0036 H 682.2877 V 224.2916 C 682.2877,225.9536 682.2077,227.0786 682.0497,227.6676 C 681.8907,228.2556 681.6237,228.6956 681.2387,228.9846 C 680.8567,229.2756 680.3867,229.4216 679.8227,229.4216 C 679.0947,229.4216 678.4687,229.1796 677.9467,228.6956 C 677.4237,228.2126 677.0597,227.5526 676.8597,226.7186 C 676.7507,226.2866 676.7007,225.3026 676.7007,223.7666 V 218.0036 H 673.1297 V 237.8866 z"
         id="path14"
         inkscape:connector-curvature="0" />
      <path
         d="M 694.7169,229.328 C 693.5949,229.328 692.6669,228.939 691.9209,228.161 C 691.1779,227.384 690.8049,226.388 690.8049,225.175 C 690.8049,223.925 691.1749,222.917 691.9119,222.145 C 692.6459,221.37 693.5739,220.982 694.6989,220.982 C 695.8269,220.982 696.7669,221.372 697.5129,222.157 C 698.2619,222.938 698.6349,223.942 698.6349,225.175 C 698.6349,226.406 698.2679,227.407 697.5329,228.175 C 696.7989,228.942 695.8569,229.328 694.7169,229.328 M 694.6579,232.717 C 696.0059,232.717 697.2839,232.378 698.4729,231.701 C 699.6629,231.026 700.5879,230.106 701.2579,228.946 C 701.9269,227.786 702.2589,226.533 702.2589,225.188 C 702.2589,223.834 701.9239,222.571 701.2519,221.393 C 700.5789,220.215 699.6659,219.293 698.5059,218.632 C 697.3459,217.965 696.0679,217.634 694.6669,217.634 C 692.6109,217.634 690.8579,218.365 689.4039,219.83 C 687.9499,221.293 687.2219,223.07 687.2219,225.163 C 687.2219,227.404 688.0439,229.272 689.6859,230.764 C 691.1279,232.067 692.7839,232.717 694.6579,232.717"
         id="path16"
         inkscape:connector-curvature="0" />
      <path
         d="M 715.085,226.9697 C 714.85,227.7667 714.38,228.4177 713.681,228.9187 C 712.982,229.4217 712.171,229.6717 711.243,229.6717 C 710.242,229.6717 709.364,229.3887 708.606,228.8257 C 708.13,228.4767 707.689,227.8567 707.284,226.9697 H 715.085 z M 718.686,224.1337 H 707.129 C 707.293,223.1137 707.739,222.3037 708.465,221.7047 C 709.19,221.0997 710.113,220.7967 711.241,220.7967 C 712.583,220.7967 713.737,221.2697 714.703,222.2097 L 717.737,220.7847 C 716.979,219.7127 716.075,218.9167 715.02,218.4057 C 713.966,217.8917 712.715,217.6337 711.264,217.6337 C 709.014,217.6337 707.184,218.3447 705.772,219.7627 C 704.356,221.1847 703.648,222.9617 703.648,225.0967 C 703.648,227.2857 704.353,229.1037 705.766,230.5467 C 707.176,231.9937 708.941,232.7177 711.067,232.7177 C 713.326,232.7177 715.161,231.9937 716.574,230.5467 C 717.993,229.1037 718.697,227.1927 718.697,224.8207 L 718.686,224.1337 z"
         id="path18"
         inkscape:connector-curvature="0" />
      <path
         d="M 720.219,232.3474 H 723.817 V 230.8774 C 724.633,231.5664 725.373,232.0434 726.034,232.3134 C 726.698,232.5824 727.374,232.7174 728.07,232.7174 C 729.488,232.7174 730.695,232.2184 731.688,231.2264 C 732.522,230.3844 732.939,229.1344 732.939,227.4824 V 218.0034 H 729.38 V 224.2864 C 729.38,225.9954 729.303,227.1324 729.15,227.6964 C 728.995,228.2574 728.728,228.6844 728.349,228.9804 C 727.967,229.2724 727.494,229.4224 726.933,229.4224 C 726.205,229.4224 725.582,229.1784 725.059,228.6894 C 724.539,228.2014 724.175,227.5274 723.975,226.6684 C 723.87,226.2204 723.817,225.2504 723.817,223.7574 V 218.0034 H 720.219 V 232.3474 z"
         id="path20"
         inkscape:connector-curvature="0" />
      <path
         d="M 735.762,232.347 H 739.363 V 218.003 H 735.762 V 232.347 z"
         id="path22"
         inkscape:connector-curvature="0" />
      <path
         d="M 741.4507,232.2828 H 745.6267 L 748.4617,228.3718 L 751.2807,232.2828 H 755.3897 L 750.5227,225.5308 L 756.0267,217.9358 H 751.8477 L 748.4377,222.6418 L 745.0427,217.9358 H 740.9367 L 746.3817,225.4818 L 741.4507,232.2828 z"
         id="path24"
         inkscape:connector-curvature="0" />
    </g>
  </g>
</svg>
