<?xml version="1.0" encoding="UTF-8" standalone="no"?>
<!-- Created with Inkscape (http://www.inkscape.org/) -->

<svg
   xmlns:dc="http://purl.org/dc/elements/1.1/"
   xmlns:cc="http://creativecommons.org/ns#"
   xmlns:rdf="http://www.w3.org/1999/02/22-rdf-syntax-ns#"
   xmlns:svg="http://www.w3.org/2000/svg"
   xmlns="http://www.w3.org/2000/svg"
   xmlns:sodipodi="http://sodipodi.sourceforge.net/DTD/sodipodi-0.dtd"
   xmlns:inkscape="http://www.inkscape.org/namespaces/inkscape"
   id="svg2"
   version="1.1"
   inkscape:version="0.48.5 r10040"
   width="512"
   height="512"
   sodipodi:docname="M_ZdfMediathek.svg">
  <metadata
     id="metadata8">
    <rdf:RDF>
      <cc:Work
         rdf:about="">
        <dc:format>image/svg+xml</dc:format>
        <dc:type
           rdf:resource="http://purl.org/dc/dcmitype/StillImage" />
        <dc:title />
      </cc:Work>
    </rdf:RDF>
  </metadata>
  <defs
     id="defs6">
    <inkscape:perspective
       id="perspective2447"
       inkscape:persp3d-origin="372.04724 : 350.78739 : 1"
       inkscape:vp_z="744.09448 : 526.18109 : 1"
       inkscape:vp_y="0 : 1000 : 0"
       inkscape:vp_x="0 : 526.18109 : 1"
       sodipodi:type="inkscape:persp3d" />
  </defs>
  <sodipodi:namedview
     pagecolor="#ffffff"
     bordercolor="#666666"
     borderopacity="1"
     objecttolerance="10"
     gridtolerance="10"
     guidetolerance="10"
     inkscape:pageopacity="0"
     inkscape:pageshadow="2"
     inkscape:window-width="1440"
     inkscape:window-height="851"
     id="namedview4"
     showgrid="false"
     inkscape:zoom="0.76026056"
     inkscape:cx="206.70239"
     inkscape:cy="272.72287"
     inkscape:window-x="0"
     inkscape:window-y="0"
     inkscape:window-maximized="1"
     inkscape:current-layer="svg2" />
  <g
     id="g3812"
     transform="translate(2.158224,-3.314553)">
    <path
       inkscape:connector-curvature="0"
       id="path3031"
       d="M 213.59098,368.83609 L 213.59098,373.99947 L 213.59098,379.16284 L 221.01544,379.01098 L 228.43991,378.85911 L 228.43991,373.99947 L 228.43991,369.13981 L 221.01544,368.98794 L 213.59098,368.83609 z M 189.29273,368.86982 L 189.29273,378.0323 L 189.29273,387.21164 L 186.74479,385.59175 C 180.55177,381.66426 172.98439,382.0157 167.76178,386.48606 C 163.18869,390.40045 161.4815,395.51861 161.83908,404.2879 C 162.02899,408.94549 162.29085,410.12743 163.8302,413.41662 C 166.61318,419.36314 169.67804,422.03599 174.66316,422.84907 C 179.94922,423.71122 184.34957,422.42621 187.7572,419.05245 C 188.94163,417.87982 190.02832,416.92637 190.1533,416.92637 C 190.27825,416.92637 190.37265,418.14127 190.37265,419.62616 L 190.37265,422.32597 L 197.12216,422.32597 L 203.87168,422.32597 L 203.87168,395.5979 L 203.87168,368.86982 L 196.58221,368.86982 L 189.29273,368.86982 z M 319.42335,368.86982 L 319.42335,395.5979 L 319.42335,422.32597 L 326.64533,422.32597 C 333.08019,422.32597 333.89985,422.22448 334.12042,421.38105 C 334.25665,420.86009 334.42339,415.59074 334.49164,409.67064 C 334.62856,397.79316 334.91282,396.54282 337.84952,395.02419 C 339.90763,393.95991 342.6283,394.35602 344.05907,395.93538 C 344.98598,396.95854 345.09222,398.19638 345.24024,409.68751 L 345.39211,422.32597 L 352.96843,422.32597 L 360.54476,422.32597 L 360.35915,407.61204 C 360.1785,393.52209 360.11161,392.78163 358.89113,390.0633 C 356.66491,385.1049 353.10162,382.91531 347.19759,382.90882 C 343.28273,382.90452 339.4368,384.20533 336.87085,386.4017 C 335.64868,387.44782 334.47776,388.30843 334.27228,388.30843 C 334.06679,388.30843 334.05175,386.67626 334.2554,384.68057 C 334.45907,382.68488 334.46471,378.3112 334.2554,374.96126 L 333.86731,368.86982 L 326.64533,368.86982 L 319.42335,368.86982 z M 418.77619,368.86982 L 418.77619,395.5979 L 418.77619,422.32597 L 426.33565,422.32597 L 433.8951,422.32597 L 433.8951,417.31446 L 433.8951,412.30296 L 436.59491,409.63689 C 438.26241,407.99444 439.4676,407.17461 439.76718,407.49392 C 440.03365,407.77791 441.87091,411.23653 443.85063,415.17149 L 447.46163,422.32597 L 455.81417,422.32597 L 464.16667,422.32597 L 463.52547,421.11106 C 463.1712,420.44285 462.35472,419.04571 461.70309,418.00629 C 461.05152,416.96686 458.02315,411.87126 454.98732,406.68398 L 449.46963,397.25153 L 455.99976,390.75511 C 459.59089,387.18155 462.69166,384.07649 462.88426,383.85375 C 463.07686,383.63102 459.2141,383.44877 454.31239,383.44877 L 445.40302,383.44877 L 440.1215,389.52335 C 437.21284,392.86435 434.62496,395.68453 434.36757,395.78352 C 434.11011,395.88252 433.8951,389.8687 433.8951,382.41947 L 433.8951,368.86982 L 426.33565,368.86982 L 418.77619,368.86982 z M 303.8151,369.4098 C 303.26124,369.4098 290.89275,375.74317 289.87735,376.54741 C 289.51481,376.83456 289.24839,377.47426 289.28676,377.9648 C 289.32515,378.45534 289.31648,379.95254 289.2699,381.28894 L 289.18553,383.71876 L 286.62072,383.71876 L 284.05589,383.71876 L 283.90403,388.98338 L 283.75217,394.24799 L 286.38449,394.24799 L 289.03366,394.24799 L 289.3374,404.37227 C 289.66417,415.136 290.0881,417.34922 292.3578,419.81178 C 294.29347,421.91194 295.42145,422.43799 298.88796,422.86594 C 301.99042,423.24895 307.52355,423.01155 310.78396,422.35973 C 312.65918,421.98484 312.67415,421.96472 312.55571,419.32244 C 312.49009,417.85783 312.28884,415.63448 312.11701,414.39529 L 311.81326,412.15109 L 308.79287,412.4548 C 304.43736,412.90434 304.30444,412.6332 304.30444,402.51615 L 304.30444,394.24799 L 308.37102,394.24799 L 312.43759,394.24799 L 312.28575,388.98338 L 312.13387,383.71876 L 308.21916,383.71876 L 304.30444,383.71876 L 304.30444,376.56427 C 304.30495,372.62931 304.0844,369.4098 303.8151,369.4098 z M 91.509152,382.90882 C 86.924672,382.90204 84.972273,383.57871 81.182388,386.50294 L 78.094484,388.899 L 76.154001,386.73917 C 73.420189,383.71317 70.474452,382.71517 65.253532,383.02694 C 60.549441,383.30784 57.713817,384.48037 55.11239,387.22851 L 53.492511,388.93276 L 53.222524,386.31732 L 52.952552,383.71876 L 46.203036,383.71876 L 39.453521,383.71876 L 39.318535,403.02236 L 39.166666,422.32597 L 46.60801,422.32597 L 54.032471,422.32597 L 53.846852,412.62354 C 53.587299,398.48332 54.585778,395.20362 59.330845,394.43361 C 60.994722,394.1636 61.515773,394.35745 62.924957,395.76664 L 64.561718,397.4034 L 64.561718,409.87313 L 64.561718,422.32597 L 71.800561,422.32597 L 79.056286,422.32597 L 79.225037,410.48057 C 79.392963,399.47196 79.492002,398.53281 80.541176,397.11654 C 82.782501,394.09103 85.67016,393.6187 88.387498,395.81726 C 89.663744,396.84984 89.676779,396.91751 89.838631,409.58627 L 89.990507,422.32597 L 97.263092,422.32597 L 104.51884,422.32597 L 104.51884,407.81452 C 104.51884,392.38789 104.29559,390.70007 101.75152,387.12727 C 99.977356,384.63569 95.80395,382.91517 91.509152,382.90882 z M 258.40775,382.90882 C 250.93166,382.90882 246.66103,383.71791 243.18759,385.79423 C 240.34613,387.49279 238.4139,390.10671 237.68675,393.23558 C 237.3204,394.81187 237.44862,394.83683 247.35541,395.64852 C 251.67739,396.00264 251.6936,395.99247 252.35006,394.55174 C 253.15713,392.78039 255.94477,391.5482 259.13331,391.5482 C 261.86803,391.5482 263.57861,392.69043 264.09421,394.87232 C 264.55548,396.82431 263.83742,397.16501 254.12181,399.37764 C 242.60511,402.00041 242.15893,402.1418 239.84658,404.05166 C 237.32133,406.13738 236.27037,408.46505 236.28622,411.91485 C 236.31575,418.34422 239.9312,421.73948 248.14849,423.05156 C 252.09458,423.68163 258.86141,422.12819 262.20435,419.82865 C 265.20977,417.7613 265.42724,417.68873 265.42724,418.78248 C 265.42724,419.21398 265.70691,420.1859 266.05157,420.94232 C 266.67562,422.31194 266.70331,422.32597 273.59415,422.32597 L 280.51239,422.32597 L 279.8712,420.84108 C 279.45687,419.89162 279.12447,414.68339 278.94314,406.39712 C 278.66047,393.4795 278.64985,393.43109 277.10391,390.28266 C 274.37307,384.72112 269.78513,382.90882 258.40775,382.90882 z M 134.62166,382.97632 C 133.72368,382.97237 132.78884,382.99048 131.8375,383.04382 C 123.11736,383.53261 117.27595,386.96082 113.95128,393.52244 C 112.45286,396.47972 112.34827,397.08237 112.34827,402.90424 C 112.34827,408.84218 112.42529,409.27972 114.12002,412.72479 C 117.26779,419.12364 121.99665,422.11545 130.16699,422.8828 C 136.94862,423.51973 143.39235,422.61814 147.6651,420.45298 C 150.16836,419.18448 155.27518,414.09473 155.27518,412.85978 C 155.27518,412.50687 152.59755,412.01332 148.5088,411.62799 L 141.75928,410.9868 L 139.53195,412.60668 C 134.56205,416.20684 127.1972,413.49871 127.1972,408.06763 L 127.1972,406.6671 L 141.84365,406.6671 L 156.50697,406.6671 L 156.23698,401.87494 C 155.53209,389.51219 148.09138,383.0355 134.62166,382.97632 z M 387.08723,383.1788 C 382.43832,383.21347 381.75856,383.4504 378.73474,384.88305 C 371.54343,388.29014 367.97857,393.72409 367.58112,401.89182 C 367.29645,407.74244 368.36464,411.49526 371.58021,415.86332 C 374.57601,419.93284 379.04073,422.25997 384.84299,422.78157 C 393.03037,423.51757 400.53279,422.38698 404.43347,419.81178 C 406.59548,418.38444 408.5943,416.28985 410.27181,413.70348 L 411.19989,412.25232 L 404.096,411.61113 C 397.39784,411.01539 396.91148,411.0456 395.8616,411.99921 C 393.15003,414.46203 388.63653,415.12305 386.05789,413.43349 C 384.37666,412.33185 382.60149,409.49761 382.5988,407.8989 L 382.5988,406.68398 L 397.31274,406.54898 L 412.02667,406.39712 L 411.84104,402.34741 C 411.41873,393.00522 407.15623,386.81348 399.32075,384.17436 C 397.05809,383.41228 394.73457,383.1788 389.34831,383.1788 C 388.50398,383.1788 387.75138,383.17385 387.08723,383.1788 z M 222.58471,383.53315 C 221.77957,383.53625 220.92433,383.54535 220.07051,383.56689 L 213.86096,383.71876 L 213.72596,403.02236 L 213.5741,422.32597 L 221.08295,422.32597 L 228.59177,422.32597 L 228.67614,403.17423 L 228.76051,384.02248 L 227.51185,383.71876 C 227.00083,383.59172 225.00013,383.52388 222.58471,383.53315 z M 134.43606,391.56507 C 135.45787,391.55033 136.48648,391.75774 137.43959,392.24002 C 139.24856,393.15537 141.23619,396.23073 141.23619,398.1121 L 141.23619,399.6476 L 134.2167,399.6476 L 127.1972,399.6476 L 127.1972,398.26396 C 127.1972,394.53701 130.78672,391.61768 134.43606,391.56507 z M 389.56764,391.58195 C 390.67548,391.56434 391.86107,391.78947 393.06055,392.29064 C 394.8274,393.02889 396.14696,395.04311 396.92461,398.16271 L 397.29589,399.6476 L 389.88828,399.6476 L 382.48065,399.6476 L 382.85193,397.67337 C 383.56052,393.89607 386.24451,391.63475 389.56764,391.58195 z M 182.45885,393.91052 C 184.52399,393.90587 186.65732,394.93844 187.77409,396.82969 C 189.98476,400.57345 189.63972,407.23032 187.08227,410.1431 C 184.65065,412.91256 181.17222,413.04118 178.57788,410.44684 C 175.49391,407.36287 175.47921,398.79394 178.561,395.51353 C 179.48114,394.53408 180.74044,394.0192 182.05387,393.92739 C 182.19068,393.91783 182.32116,393.91083 182.45885,393.91052 z M 263.89173,404.1023 C 264.27146,404.14487 264.34786,404.69723 264.34732,406.21152 C 264.34632,408.98431 263.0193,411.8569 261.0738,413.28162 C 257.97002,415.55458 253.54228,415.42473 251.7426,413.01165 C 249.49341,409.99584 251.84066,407.52269 258.76209,405.60406 C 260.79412,405.04077 262.88268,404.42002 263.40238,404.2204 C 263.60513,404.14253 263.76515,404.08809 263.89173,404.1023 z"
       style="fill:#a39e98;fill-opacity:1" />
    <path
       id="path2461"
       d="M 143.34911,341.27741 C 84.98142,329.47602 43.516886,278.88802 43.516886,219.47905 C 43.516886,163.42719 79.892636,114.9689 133.62117,99.44581 C 148.64795,95.104312 176.01722,94.114291 191.94373,97.336121 C 212.89506,101.57444 232.43867,111.33968 250.02361,126.35654 C 257.36683,132.62736 271.35789,150.15027 276.27355,159.23286 L 278.70302,163.72177 L 307.64938,163.75149 C 325.43841,163.76976 339.92378,164.47899 345.22993,165.59149 C 362.38808,169.18894 373.29128,178.88944 378.13299,194.86514 L 380.5807,202.94158 L 382.47363,192.95835 C 384.85902,180.37801 389.90533,172.92494 399.3194,168.07823 C 406.16091,164.55598 407.42865,164.41837 437.45652,163.93866 L 468.51689,163.44246 L 468.51689,172.85225 L 468.51689,182.26205 L 444.22612,182.26205 C 410.39368,182.26205 406.17548,184.46858 404.69262,202.94193 L 403.94853,212.21171 L 431.95419,212.21171 L 459.95984,212.21171 L 459.95984,221.48184 L 459.95984,230.75198 L 432.14944,230.75198 L 404.33903,230.75198 L 404.33903,252.85769 L 404.33903,274.96339 L 392.92965,274.96339 L 381.52025,274.96339 L 381.52025,257.05203 C 381.52025,247.20079 380.9665,239.48292 380.28971,239.9012 C 379.61291,240.31949 378.23645,243.60017 377.2309,247.19162 C 374.77178,255.97478 365.09237,266.52849 355.53453,270.84774 C 348.37419,274.08353 346.30999,274.27228 313.42042,274.69866 L 278.83568,275.14704 L 278.83568,265.07198 L 278.83568,254.99694 L 243.8944,254.99694 L 208.95314,254.99694 L 208.95314,249.95952 C 208.95314,242.37932 212.27033,235.75757 216.9782,233.93997 C 219.23178,233.06992 228.88736,232.12389 238.43503,231.83768 C 254.31939,231.36151 256.49602,230.95849 264.05092,227.09476 C 276.06006,220.95306 280.77237,213.69937 281.44826,200.31492 C 282.11744,187.06313 279.92315,179.19543 273.60875,172.20615 C 265.56608,163.30388 260.05003,162.2956 219.39059,162.2956 L 184.70817,162.2956 L 184.70817,172.99191 L 184.70817,183.68822 L 214.44501,183.68822 C 252.8975,183.68822 256.0169,184.74886 256.0169,197.82333 C 256.0169,206.59375 253.13403,207.7946 228.60587,209.24141 C 205.43282,210.60828 197.97038,212.8947 191.47054,220.61932 C 185.38547,227.85103 183.28199,237.4762 183.28199,258.08892 L 183.28199,276.35111 L 230.45962,276.72688 L 277.63725,277.10265 L 270.61905,287.79896 C 257.25732,308.16337 233.81895,327.10552 211.71651,335.40216 C 191.0062,343.17623 164.15348,345.48385 143.34911,341.27741 z M 344.41142,253.21423 C 348.54451,251.1026 351.61101,248.19717 353.37918,244.71749 C 357.31619,236.96959 359.12085,221.29871 357.45796,209.29905 C 355.56057,195.60723 352.17361,189.43816 344.35707,185.43686 C 338.60925,182.49454 336.36919,182.2301 320.19474,182.58451 L 302.36756,182.97513 L 301.98492,217.88947 C 301.77446,237.09235 301.91477,253.61815 302.29669,254.61346 C 302.80576,255.94005 307.68122,256.42312 320.56089,256.42312 C 335.9696,256.42312 338.90314,256.02844 344.41142,253.21423 z"
       style="fill:#fe8200;stroke:none"
       inkscape:connector-curvature="0" />
    <path
       inkscape:connector-curvature="0"
       style="fill:#000000"
       d=""
       id="path2453" />
    <path
       inkscape:connector-curvature="0"
       style="fill:#000000"
       d=""
       id="path2451" />
  </g>
</svg>
